# Blender 4.2.4 LTS
# www.blender.org
o Cube.029
v -0.325393 0.000174 0.028123
v -0.325393 0.248623 0.028123
v -0.325393 0.000174 -0.060145
v -0.325393 0.248623 -0.031778
v 0.325393 0.000174 0.028123
v 0.325393 0.248623 0.028123
v 0.325393 0.000174 -0.060145
v 0.325393 0.248623 -0.031778
v -0.325393 0.047431 0.028123
v -0.325393 0.109543 0.028123
v -0.325393 0.171655 0.028123
v -0.325393 0.171655 -0.060145
v -0.325393 0.109543 -0.060145
v -0.325393 0.047431 -0.060145
v 0.325393 0.171655 -0.060145
v 0.325393 0.109543 -0.060145
v 0.325393 0.047431 -0.060145
v 0.325393 0.171655 0.028123
v 0.325393 0.109543 0.028123
v 0.325393 0.047431 0.028123
v -0.325393 0.225538 0.028123
v -0.325393 0.225538 -0.060145
v 0.325393 0.225538 -0.060145
v 0.325393 0.225538 0.028123
v -0.344422 0.224863 0.039614
v -0.344422 0.249298 0.039614
v -0.344422 0.249298 -0.060145
v 0.344422 0.249298 -0.060145
v 0.344422 0.249298 0.039614
v -0.344422 0.224863 -0.060145
v 0.344422 0.224863 -0.060145
v 0.344422 0.224863 0.039614
v -0.312036 0.059946 0.028123
v -0.312036 0.097027 0.028123
v 0.312036 0.214680 0.028123
v 0.312036 0.182513 0.028123
v 0.312036 0.097027 0.028123
v 0.312036 0.059946 0.028123
v -0.312036 0.182513 0.028123
v -0.312036 0.214680 0.028123
v -0.311780 0.122500 0.028123
v -0.311780 0.158697 0.028123
v 0.311780 0.158697 0.028123
v 0.311780 0.122500 0.028123
v -0.312036 0.059946 0.006014
v -0.312036 0.097027 0.006014
v 0.312036 0.214680 0.006014
v 0.312036 0.182513 0.006014
v 0.312036 0.097027 0.006014
v 0.312036 0.059946 0.006014
v -0.312036 0.182513 0.006014
v -0.312036 0.214680 0.006014
v -0.311780 0.122500 0.006014
v -0.311780 0.158697 0.006014
v 0.311780 0.158697 0.006014
v 0.311780 0.122500 0.006014
vn 0.0355 0.9994 -0.0000
vn -0.0355 0.9994 -0.0000
vn -0.0355 -0.9994 -0.0000
vn 0.0355 -0.9994 -0.0000
vn -0.0000 -1.0000 -0.0000
vn -0.0000 1.0000 -0.0000
vn -0.0000 -0.0000 1.0000
vn 1.0000 -0.0000 -0.0000
vn -0.0000 -0.0000 -1.0000
vn -1.0000 -0.0000 -0.0000
vn -0.0000 0.9983 -0.0586
vn -0.0000 -0.9983 -0.0586
vn -0.0000 0.9997 0.0238
vt 0.042473 0.513690
vt 0.014051 0.513690
vt 0.000592 0.504655
vt 0.047925 0.504655
vt 0.335795 0.815408
vt 0.335795 0.843830
vt 0.326760 0.849282
vt 0.326760 0.801949
vt 0.374908 0.843587
vt 0.374908 0.801706
vt 0.383943 0.801706
vt 0.383943 0.849040
vt 0.338433 0.849282
vt 0.338433 0.807401
vt 0.347468 0.801949
vt 0.347468 0.849282
vt 0.265337 0.813441
vt 0.265337 0.504655
vt 0.307218 0.504655
vt 0.307218 0.813441
vt 0.014051 0.822476
vt 0.042473 0.822476
vt 0.156039 0.813441
vt 0.133617 0.813441
vt 0.133617 0.504656
vt 0.156039 0.504656
vt 0.104146 0.813441
vt 0.104146 0.504656
vt 0.110085 0.510993
vt 0.110085 0.807103
vt 0.074675 0.504656
vt 0.097998 0.511114
vt 0.080823 0.511114
vt 0.903507 0.500592
vt 0.903507 0.523014
vt 0.861626 0.523014
vt 0.861626 0.500592
vt 0.903507 0.552485
vt 0.861626 0.552485
vt 0.903507 0.581956
vt 0.861626 0.581956
vt 0.264154 0.813441
vt 0.241732 0.813441
vt 0.241731 0.504655
vt 0.264154 0.504655
vt 0.212260 0.813441
vt 0.212260 0.504655
vt 0.182789 0.813441
vt 0.182789 0.504655
vt 0.901116 0.172565
vt 0.901116 0.194987
vt 0.859235 0.194987
vt 0.859235 0.172565
vt 0.901116 0.224458
vt 0.859235 0.224458
vt 0.901116 0.253929
vt 0.859235 0.253929
vt 0.049108 0.504656
vt 0.069523 0.510993
vt 0.054260 0.510993
vt 0.903507 0.607523
vt 0.861626 0.607523
vt 0.157223 0.813441
vt 0.157223 0.504655
vt 0.901116 0.279496
vt 0.859235 0.279496
vt 0.319996 0.849040
vt 0.308402 0.849040
vt 0.308402 0.801706
vt 0.319996 0.801706
vt 0.767189 0.655462
vt 0.755595 0.655462
vt 0.755595 0.328619
vt 0.767188 0.328619
vt 0.361779 0.801706
vt 0.373373 0.801706
vt 0.373373 0.849040
vt 0.361779 0.849040
vt 0.768372 0.328619
vt 0.779966 0.328619
vt 0.779966 0.655462
vt 0.768372 0.655462
vt 0.782348 0.009621
vt 0.782348 0.318406
vt 0.776887 0.327435
vt 0.776887 0.000592
vt 0.753783 0.454686
vt 0.753783 0.763471
vt 0.753462 0.772500
vt 0.753462 0.445657
vt 0.775703 0.009621
vt 0.775703 0.318406
vt 0.770241 0.327435
vt 0.770241 0.000592
vt 0.755595 0.318406
vt 0.755595 0.009621
vt 0.769058 0.000592
vt 0.769058 0.327435
vt 0.781149 0.643506
vt 0.781149 0.625912
vt 0.791639 0.625912
vt 0.791639 0.643506
vt 0.373453 0.800523
vt 0.373453 0.504655
vt 0.383943 0.504655
vt 0.383943 0.800523
vt 0.127679 0.807103
vt 0.074675 0.813441
vt 0.049108 0.813441
vt 0.054260 0.807103
vt 0.069523 0.807103
vt 0.127679 0.510993
vt 0.783532 0.296702
vt 0.783532 0.000592
vt 0.794022 0.000592
vt 0.794022 0.296702
vt 0.097998 0.806982
vt 0.080823 0.806982
vt 0.560580 0.466702
vt 0.578174 0.466702
vt 0.578174 0.762812
vt 0.560580 0.762812
vt 0.781149 0.328619
vt 0.796412 0.328619
vt 0.796412 0.624729
vt 0.781149 0.624729
vt 0.308402 0.504655
vt 0.325577 0.504655
vt 0.325577 0.800523
vt 0.308402 0.800523
vt 0.797595 0.651786
vt 0.797595 0.634612
vt 0.808085 0.634612
vt 0.808085 0.651786
vt 0.806878 0.321847
vt 0.806878 0.306584
vt 0.817368 0.306584
vt 0.817368 0.321847
vt 0.326760 0.800766
vt 0.326760 0.504655
vt 0.337250 0.504655
vt 0.337250 0.800766
vt 0.795205 0.323759
vt 0.795205 0.306584
vt 0.805695 0.306585
vt 0.805695 0.323759
vt 0.783532 0.315479
vt 0.783532 0.297885
vt 0.794022 0.297885
vt 0.794022 0.315479
vt 0.348923 0.504655
vt 0.348923 0.800766
vt 0.338433 0.800766
vt 0.338433 0.504655
vt 0.360596 0.504655
vt 0.360596 0.800766
vt 0.350106 0.800766
vt 0.350106 0.504655
vt 0.361779 0.800523
vt 0.361779 0.504655
vt 0.372269 0.504655
vt 0.372269 0.800523
vt 0.809269 0.649874
vt 0.809269 0.634611
vt 0.819759 0.634611
vt 0.819759 0.649874
s 0
f 2/1/1 4/2/1 27/3/1 26/4/1
f 8/5/2 6/6/2 29/7/2 28/8/2
f 24/9/3 23/10/3 31/11/3 32/12/3
f 22/13/4 21/14/4 25/15/4 30/16/4
f 3/17/5 7/18/5 5/19/5 1/20/5
f 8/21/6 4/2/6 2/1/6 6/22/6
f 5/23/7 20/24/7 9/25/7 1/26/7
f 19/27/7 10/28/7 34/29/7 37/30/7
f 11/31/7 10/28/7 41/32/7 42/33/7
f 7/34/8 17/35/8 20/36/8 5/37/8
f 17/35/8 16/38/8 19/39/8 20/36/8
f 16/38/8 15/40/8 18/41/8 19/39/8
f 3/42/9 14/43/9 17/44/9 7/45/9
f 14/43/9 13/46/9 16/47/9 17/44/9
f 13/46/9 12/48/9 15/49/9 16/47/9
f 1/50/10 9/51/10 14/52/10 3/53/10
f 9/51/10 10/54/10 13/55/10 14/52/10
f 10/54/10 11/56/10 12/57/10 13/55/10
f 21/58/7 11/31/7 39/59/7 40/60/7
f 15/40/8 23/61/8 24/62/8 18/41/8
f 12/48/9 22/63/9 23/64/9 15/49/9
f 11/56/10 21/65/10 22/66/10 12/57/10
f 25/67/10 26/68/10 27/69/10 30/70/10
f 30/71/9 27/72/9 28/73/9 31/74/9
f 31/75/8 28/76/8 29/77/8 32/78/8
f 32/79/7 29/80/7 26/81/7 25/82/7
f 6/83/11 2/84/11 26/85/11 29/86/11
f 23/87/7 22/88/7 30/89/7 31/90/7
f 21/91/12 24/92/12 32/93/12 25/94/12
f 4/95/13 8/96/13 28/97/13 27/98/13
f 38/99/10 37/100/10 49/101/10 50/102/10
f 43/103/5 42/104/5 54/105/5 55/106/5
f 20/24/7 19/27/7 37/30/7 38/107/7
f 18/108/7 24/109/7 35/110/7 36/111/7
f 11/31/7 18/108/7 36/111/7 39/59/7
f 10/28/7 9/25/7 33/112/7 34/29/7
f 9/25/7 20/24/7 38/107/7 33/112/7
f 24/109/7 21/58/7 40/60/7 35/110/7
f 39/113/6 36/114/6 48/115/6 51/116/6
f 10/28/7 19/27/7 44/117/7 41/32/7
f 18/108/7 11/31/7 42/33/7 43/118/7
f 19/27/7 18/108/7 43/118/7 44/117/7
f 50/119/7 49/120/7 46/121/7 45/122/7
f 48/123/7 47/124/7 52/125/7 51/126/7
f 56/127/7 55/128/7 54/129/7 53/130/7
f 42/131/8 41/132/8 53/133/8 54/134/8
f 40/135/8 39/136/8 51/137/8 52/138/8
f 33/139/6 38/140/6 50/141/6 45/142/6
f 44/143/10 43/144/10 55/145/10 56/146/10
f 34/147/8 33/148/8 45/149/8 46/150/8
f 35/151/5 40/152/5 52/153/5 47/154/5
f 37/155/5 34/156/5 46/157/5 49/158/5
f 41/159/6 44/160/6 56/161/6 53/162/6
f 36/163/10 35/164/10 47/165/10 48/166/10
