# Blender 4.2.4 LTS
# www.blender.org
o Cube.033
v -0.019135 -0.022426 0.010938
v -0.019135 0.000676 0.005306
v -0.017009 -0.020456 0.010458
v 0.000000 -0.022426 0.010938
v -0.019135 -0.023671 0.005831
v 0.000000 -0.023671 0.005831
v -0.019135 -0.000569 0.000198
v 0.000000 -0.000569 0.000198
v -0.014531 0.000809 -0.000138
v -0.019135 0.004194 -0.000963
v -0.019135 0.005440 0.004144
v -0.019135 0.027297 -0.006596
v 0.000000 0.004194 -0.000963
v -0.014531 0.002816 -0.000627
v -0.014531 0.002571 -0.001631
v 0.000000 0.002816 -0.000627
v 0.014530 0.002816 -0.000627
v 0.000000 0.002571 -0.001631
v 0.014530 0.002571 -0.001631
v 0.000000 0.005844 -0.002429
v 0.014530 0.005844 -0.002429
v -0.014531 0.005844 -0.002429
v 0.000000 0.005442 -0.003035
v 0.000000 0.005041 -0.003642
v 0.014530 0.005442 -0.003035
v -0.014531 0.005442 -0.003035
v -0.014531 0.005041 -0.003642
v -0.014531 0.002170 -0.002856
v -0.014531 0.000163 -0.002789
v -0.014531 0.001768 -0.004081
v -0.014531 -0.000238 -0.004436
v 0.000000 0.001768 -0.004081
v 0.000000 -0.000238 -0.004436
v 0.014530 0.001768 -0.004081
v 0.014530 -0.000238 -0.004436
v 0.014530 0.002170 -0.002856
v 0.014530 0.005041 -0.003642
v 0.014530 0.000163 -0.002789
v 0.014530 -0.023704 -0.006214
v 0.014530 0.000565 -0.001142
v 0.014530 -0.023703 -0.004567
v 0.000000 0.000565 -0.001142
v 0.014530 0.000809 -0.000138
v 0.019134 -0.000569 0.000198
v 0.000000 0.000809 -0.000138
v 0.019134 -0.023671 0.005831
v 0.019134 0.000676 0.005306
v 0.019134 0.004194 -0.000963
v 0.019134 0.027297 -0.006596
v 0.019134 0.005440 0.004144
v 0.019134 0.028542 -0.001488
v 0.017008 0.005256 0.004189
v 0.017008 0.026572 -0.001008
v 0.017008 0.000860 0.005261
v 0.017008 0.004802 0.002330
v 0.017008 0.004349 0.000472
v 0.017008 0.026119 -0.002867
v 0.017008 0.000407 0.003402
v 0.017008 -0.020909 0.008599
v 0.017008 -0.000046 0.001543
v 0.017008 -0.021363 0.006741
v 0.000000 -0.000046 0.001543
v 0.000000 -0.021363 0.006741
v 0.000000 0.004349 0.000472
v -0.017009 -0.000046 0.001543
v -0.017009 0.000407 0.003402
v -0.017009 -0.021363 0.006741
v -0.017009 0.004349 0.000472
v -0.017009 0.025666 -0.004726
v -0.017009 0.004802 0.002330
v -0.017009 0.026119 -0.002867
v -0.017009 0.005256 0.004189
v -0.017009 0.026572 -0.001008
v -0.017009 0.000860 0.005261
v -0.019135 0.028542 -0.001488
v 0.000000 0.026572 -0.001008
v 0.000000 0.028542 -0.001488
v 0.000000 0.026119 -0.002867
v 0.000000 0.025666 -0.004726
v 0.017008 0.025666 -0.004726
v 0.000000 0.027297 -0.006596
v -0.017009 -0.020909 0.008599
v 0.000000 -0.020909 0.008599
v 0.000000 -0.020456 0.010458
v 0.017008 -0.020456 0.010458
v 0.019134 -0.022426 0.010938
v 0.000000 -0.023703 -0.004567
v -0.014531 0.000565 -0.001142
v -0.014531 -0.023703 -0.004567
v -0.014531 -0.023704 -0.006214
v 0.000000 -0.023704 -0.006214
v -0.014531 -0.023704 -0.007861
v 0.000000 -0.023704 -0.007861
v 0.014530 -0.023704 -0.007861
vn -1.0000 -0.0000 -0.0000
vn -0.0000 0.2369 0.9715
vn -0.0000 0.2367 0.9716
vn -0.0000 -0.9715 0.2368
vn -0.0000 -0.2369 -0.9715
vn -0.0000 -0.2368 -0.9716
vn -0.0000 0.9715 -0.2371
vn -0.0000 0.9715 -0.2370
vn 0.0009 0.8333 -0.5527
vn -0.0007 0.8334 -0.5527
vn 0.0007 0.8334 -0.5527
vn 0.0006 0.8334 -0.5527
vn -0.0006 0.8334 -0.5527
vn -0.0011 0.8344 -0.5512
vn 0.0011 0.8344 -0.5512
vn -0.0010 0.8343 -0.5513
vn 0.0010 0.8343 -0.5513
vn -0.0011 0.8343 -0.5513
vn 0.0011 0.8343 -0.5513
vn -0.0000 0.1743 -0.9847
vn -0.0000 0.1329 -0.9911
vn 1.0000 -0.0000 -0.0000
vn -0.0000 -0.1397 0.9902
vn -0.0005 -0.9717 0.2362
vn 0.0006 -0.9717 0.2362
vn -0.0006 -0.9717 0.2362
vn -0.0000 -0.9717 0.2362
vn -0.0000 0.2368 0.9716
vn -0.0000 -0.9716 0.2367
vn -0.0000 -0.9716 0.2368
vn -0.0008 0.9716 -0.2368
vn 0.0008 0.9716 -0.2368
vn -0.0006 0.9716 -0.2368
vn 0.0006 0.9716 -0.2368
vn -0.0000 0.9716 -0.2368
vn -0.0000 0.9714 -0.2374
vn -0.0000 0.9716 -0.2367
vn -0.0000 -0.9715 0.2369
vn 0.0006 -1.0000 0.0006
vn -0.0006 -1.0000 0.0006
vn -0.0000 -1.0000 -0.0000
vn -0.0000 0.1444 -0.9895
vt 0.365943 0.754430
vt 0.359596 0.817388
vt 0.344186 0.820018
vt 0.353265 0.744405
vt 0.993186 0.121564
vt 0.993187 0.178034
vt 0.988138 0.173219
vt 0.988138 0.121115
vt 0.947745 0.178034
vt 0.947745 0.173219
vt 0.404842 0.737635
vt 0.405627 0.752788
vt 0.406823 0.514611
vt 0.406823 0.477794
vt 0.436450 0.477794
vt 0.436450 0.514611
vt 0.413951 0.475598
vt 0.436450 0.475598
vt 0.406823 0.470203
vt 0.413951 0.472400
vt 0.364902 0.830936
vt 0.348986 0.836106
vt 0.387845 0.886337
vt 0.377642 0.900895
vt 0.406823 0.433385
vt 0.436450 0.433385
vt 0.436450 0.470203
vt 0.436450 0.472400
vt 0.962237 0.591093
vt 0.971803 0.589484
vt 0.969549 0.593949
vt 0.965041 0.593970
vt 0.975959 0.630246
vt 0.972693 0.630446
vt 0.466075 0.470203
vt 0.458946 0.472399
vt 0.975840 0.671085
vt 0.972881 0.666878
vt 0.359535 0.686310
vt 0.359535 0.646291
vt 0.368813 0.646291
vt 0.368813 0.686310
vt 0.359535 0.606275
vt 0.368813 0.606275
vt 0.425884 0.575837
vt 0.440176 0.613222
vt 0.438305 0.613939
vt 0.424013 0.576553
vt 0.411592 0.538455
vt 0.409722 0.539170
vt 0.422141 0.577268
vt 0.407850 0.539886
vt 0.436433 0.614654
vt 0.457995 0.545113
vt 0.454699 0.543792
vt 0.455767 0.534831
vt 0.457364 0.536040
vt 0.451402 0.542475
vt 0.454172 0.533619
vt 0.449705 0.547902
vt 0.454161 0.549297
vt 0.458617 0.550689
vt 0.730007 0.989224
vt 0.724396 0.989224
vt 0.724396 0.949206
vt 0.730007 0.949206
vt 0.715302 0.989224
vt 0.715302 0.949206
vt 0.724396 0.909190
vt 0.730007 0.909190
vt 0.715302 0.909190
vt 0.436824 0.622843
vt 0.435799 0.628277
vt 0.431132 0.628367
vt 0.433289 0.623188
vt 0.440356 0.622500
vt 0.440467 0.628184
vt 0.412277 0.690370
vt 0.407850 0.689382
vt 0.416704 0.691355
vt 0.684005 0.909190
vt 0.684005 0.949206
vt 0.616508 0.949206
vt 0.616508 0.909190
vt 0.966180 0.670604
vt 0.962237 0.631184
vt 0.965463 0.630980
vt 0.968472 0.667495
vt 0.466075 0.477794
vt 0.458946 0.475598
vt 0.466075 0.514611
vt 0.456820 0.738159
vt 0.486879 0.802179
vt 0.472526 0.805157
vt 0.447570 0.752028
vt 0.488542 0.817460
vt 0.473254 0.818886
vt 0.466075 0.433385
vt 0.488542 0.882751
vt 0.475135 0.874642
vt 0.902305 0.109919
vt 0.902305 0.053450
vt 0.907354 0.058265
vt 0.907354 0.110369
vt 0.902305 0.121564
vt 0.907354 0.121115
vt 0.285435 0.626340
vt 0.285437 0.565915
vt 0.290707 0.565915
vt 0.290705 0.626342
vt 0.285433 0.638801
vt 0.290703 0.638801
vt 0.295972 0.626342
vt 0.295972 0.638800
vt 0.295976 0.565914
vt 0.285430 0.699225
vt 0.290700 0.699225
vt 0.295967 0.699228
vt 0.914067 0.308100
vt 0.914067 0.259608
vt 0.951655 0.259608
vt 0.951655 0.308100
vt 0.914067 0.249611
vt 0.951655 0.249611
vt 0.989246 0.259608
vt 0.989246 0.308100
vt 0.989246 0.249611
vt 0.266643 0.639733
vt 0.266642 0.627275
vt 0.271911 0.627277
vt 0.271909 0.639734
vt 0.266648 0.566848
vt 0.271915 0.566847
vt 0.951655 0.201119
vt 0.989246 0.201119
vt 0.266637 0.700157
vt 0.271906 0.700158
vt 0.261367 0.700156
vt 0.261372 0.639735
vt 0.261373 0.627274
vt 0.993186 0.109919
vt 0.988138 0.110369
vt 0.993186 0.053450
vt 0.988138 0.058265
vt 0.261377 0.566848
vt 0.947744 0.053450
vt 0.947744 0.058265
vt 0.285434 0.519075
vt 0.285430 0.472231
vt 0.290700 0.472231
vt 0.290703 0.519074
vt 0.295973 0.519074
vt 0.295969 0.472231
vt 0.914067 0.201119
vt 0.436497 0.905596
vt 0.433214 0.888987
vt 0.266642 0.520002
vt 0.271910 0.520002
vt 0.261373 0.520003
vt 0.266637 0.473162
vt 0.271904 0.473162
vt 0.261367 0.473163
vt 0.902305 0.178034
vt 0.907354 0.173219
vt 0.684005 0.989224
vt 0.616508 0.989224
vt 0.459373 0.615494
vt 0.454847 0.615202
vt 0.452276 0.655138
vt 0.456802 0.655429
vt 0.463899 0.615785
vt 0.461329 0.655720
vt 0.795317 0.949206
vt 0.795317 0.989224
vt 0.454232 0.695363
vt 0.458759 0.695655
vt 0.795317 0.909190
vt 0.449705 0.695072
s 0
f 1/1/1 2/2/1 7/3/1 5/4/1
f 2/5/2 1/6/2 3/7/2 74/8/2
f 1/6/3 4/9/3 84/10/3 3/7/3
f 5/4/4 6/11/4 4/12/4 1/1/4
f 5/13/5 7/14/5 8/15/5 6/16/5
f 8/15/5 7/14/5 9/17/5 45/18/5
f 7/14/6 10/19/6 14/20/6 9/17/6
f 2/2/1 11/21/1 10/22/1 7/3/1
f 11/21/1 75/23/1 12/24/1 10/22/1
f 10/19/5 12/25/5 81/26/5 13/27/5
f 10/19/5 13/27/5 16/28/5 14/20/5
f 9/29/1 14/30/1 15/31/1 88/32/1
f 14/30/7 16/33/7 18/34/7 15/31/7
f 13/27/5 48/35/5 17/36/5 16/28/5
f 16/33/8 17/37/8 19/38/8 18/34/8
f 15/39/2 18/40/2 20/41/2 22/42/2
f 18/40/2 19/43/2 21/44/2 20/41/2
f 20/45/9 21/46/10 25/47/11 23/48/10
f 22/49/11 20/45/10 23/48/12 26/50/13
f 26/50/14 23/48/15 24/51/14 27/52/15
f 23/48/16 25/47/17 37/53/18 24/51/19
f 30/54/1 28/55/1 26/56/1 27/57/1
f 28/55/1 15/58/1 22/59/1 26/56/1
f 88/60/1 15/58/1 28/55/1 29/61/1
f 29/61/1 28/55/1 30/54/1 31/62/1
f 31/63/20 30/64/20 32/65/20 33/66/20
f 32/65/21 30/64/21 27/67/21 24/68/21
f 33/66/20 32/65/20 34/69/20 35/70/20
f 34/69/21 32/65/21 24/68/21 37/71/21
f 36/72/22 38/73/22 35/74/22 34/75/22
f 36/72/22 34/75/22 37/53/22 25/47/22
f 19/76/22 40/77/22 38/73/22 36/72/22
f 19/76/22 36/72/22 25/47/22 21/46/22
f 35/74/22 38/73/22 39/78/22 94/79/22
f 38/73/22 40/77/22 41/80/22 39/78/22
f 40/81/23 42/82/23 87/83/23 41/84/23
f 43/85/24 45/86/25 42/87/26 40/88/25
f 17/37/22 43/85/22 40/88/22 19/38/22
f 44/89/5 8/15/5 45/18/5 43/90/5
f 48/35/6 44/89/6 43/90/6 17/36/6
f 45/86/27 9/29/27 88/32/27 42/87/27
f 6/16/5 8/15/5 44/89/5 46/91/5
f 46/92/22 44/93/22 47/94/22 86/95/22
f 44/93/22 48/96/22 50/97/22 47/94/22
f 13/27/5 81/26/5 49/98/5 48/35/5
f 48/96/22 49/99/22 51/100/22 50/97/22
f 50/101/2 51/102/2 53/103/2 52/104/2
f 47/105/2 50/101/2 52/104/2 54/106/2
f 52/107/1 53/108/1 57/109/1 55/110/1
f 54/111/1 52/107/1 55/110/1 58/112/1
f 58/112/1 55/110/1 56/113/1 60/114/1
f 55/110/1 57/109/1 80/115/1 56/113/1
f 85/116/1 54/111/1 58/112/1 59/117/1
f 59/117/1 58/112/1 60/114/1 61/118/1
f 61/119/2 60/120/2 62/121/2 63/122/2
f 60/120/28 56/123/28 64/124/28 62/121/28
f 63/122/2 62/121/2 65/125/2 67/126/2
f 62/121/28 64/124/28 68/127/28 65/125/28
f 70/128/22 66/129/22 65/130/22 68/131/22
f 66/129/22 82/132/22 67/133/22 65/130/22
f 64/124/2 79/134/2 69/135/2 68/127/2
f 71/136/22 70/128/22 68/131/22 69/137/22
f 73/138/22 72/139/22 70/128/22 71/136/22
f 72/139/22 74/140/22 66/129/22 70/128/22
f 11/141/2 2/5/2 74/8/2 72/142/2
f 75/143/2 11/141/2 72/142/2 73/144/2
f 74/140/22 3/145/22 82/132/22 66/129/22
f 77/146/3 75/143/3 73/144/3 76/147/3
f 76/148/29 73/149/29 71/150/29 78/151/29
f 51/102/3 77/146/3 76/147/3 53/103/3
f 53/108/29 76/148/29 78/151/29 57/109/29
f 57/109/30 78/151/30 79/152/30 80/115/30
f 78/151/30 71/150/30 69/153/30 79/152/30
f 56/123/2 80/154/2 79/134/2 64/124/2
f 49/99/31 81/155/32 77/156/33 51/100/34
f 81/155/35 12/24/35 75/23/35 77/156/35
f 82/132/36 83/157/36 63/158/36 67/133/36
f 3/145/35 84/159/35 83/157/35 82/132/35
f 83/157/36 59/160/36 61/161/36 63/158/36
f 84/159/37 85/162/37 59/160/37 83/157/37
f 4/9/3 86/163/3 85/164/3 84/10/3
f 86/163/2 47/105/2 54/106/2 85/164/2
f 6/11/38 46/92/38 86/95/38 4/12/38
f 42/82/23 88/165/23 89/166/23 87/83/23
f 88/60/1 29/61/1 90/167/1 89/168/1
f 87/169/39 89/168/40 90/167/39 91/170/40
f 91/170/41 90/167/41 92/171/41 93/172/41
f 29/61/1 31/62/1 92/171/1 90/167/1
f 31/63/42 33/66/42 93/173/42 92/174/42
f 39/175/41 91/170/41 93/172/41 94/176/41
f 33/66/42 35/70/42 94/177/42 93/173/42
f 41/178/39 87/169/40 91/170/39 39/175/40
