# Blender 4.2.4 LTS
# www.blender.org
o Cylinder.005
v -0.083389 -0.014358 0.566906
v -0.086342 0.009408 0.569859
v -0.083389 -0.014358 0.400128
v -0.086342 0.009408 0.397175
v 0.083390 -0.014358 0.566906
v 0.086342 0.009408 0.569859
v 0.083390 -0.014358 0.400128
v 0.086342 0.009408 0.397175
v -0.062182 -0.006386 0.545699
v -0.064383 0.011336 0.547901
v -0.062182 -0.006386 0.421335
v -0.064383 0.011336 0.419133
v 0.062182 -0.006386 0.545699
v 0.064384 0.011336 0.547901
v 0.062182 -0.006386 0.421335
v 0.064384 0.011336 0.419133
v -0.083389 -0.014358 -0.400128
v -0.086342 0.009408 -0.397175
v -0.083389 -0.014358 -0.566906
v -0.086342 0.009408 -0.569859
v 0.083390 -0.014358 -0.400128
v 0.086342 0.009408 -0.397175
v 0.083390 -0.014358 -0.566906
v 0.086342 0.009408 -0.569859
v -0.062182 -0.006386 -0.421335
v -0.064383 0.011336 -0.419133
v -0.062182 -0.006386 -0.545699
v -0.064383 0.011336 -0.547901
v 0.062182 -0.006386 -0.421335
v 0.064384 0.011336 -0.419133
v 0.062182 -0.006386 -0.545699
v 0.064384 0.011336 -0.547901
vn -0.9924 -0.1233 -0.0000
vn -0.0000 -0.1233 -0.9924
vn 0.9924 -0.1233 -0.0000
vn -0.0000 -0.1233 0.9924
vn -0.0000 -1.0000 -0.0000
vn -0.0000 1.0000 -0.0000
vt 0.961647 0.642977
vt 0.948026 0.647088
vt 0.930718 0.545997
vt 0.944930 0.545343
vt 0.930278 0.527102
vt 0.944506 0.527095
vt 0.942865 0.425316
vt 0.956662 0.428789
vt 0.947894 0.407097
vt 0.961519 0.411194
vt 0.499131 0.750504
vt 0.480878 0.750504
vt 0.480878 0.651450
vt 0.499131 0.651450
vt 0.905799 0.406738
vt 0.905799 0.425637
vt 0.803237 0.425637
vt 0.803237 0.406738
vt 0.990259 0.129719
vt 0.993326 0.139875
vt 0.917947 0.152796
vt 0.917458 0.142198
vt 0.903858 0.153126
vt 0.903850 0.142517
vt 0.827956 0.143755
vt 0.830544 0.133467
vt 0.814370 0.140008
vt 0.817423 0.129848
vt 0.763622 0.431590
vt 0.763622 0.445201
vt 0.689759 0.445201
vt 0.689759 0.431590
vt 0.077916 0.001438
vt 0.077916 0.015531
vt 0.001438 0.015532
vt 0.001438 0.001438
vt 0.998095 0.474735
vt 0.984474 0.478846
vt 0.967166 0.377755
vt 0.981379 0.377101
vt 0.966727 0.358861
vt 0.980954 0.358853
vt 0.979313 0.257074
vt 0.993110 0.260547
vt 0.984342 0.238855
vt 0.997967 0.242952
vt 0.993632 0.689328
vt 0.975379 0.689328
vt 0.975379 0.590274
vt 0.993632 0.590274
vt 0.991978 0.585774
vt 0.973078 0.585774
vt 0.973078 0.483212
vt 0.991978 0.483212
vt 0.972464 0.600189
vt 0.962308 0.603257
vt 0.949387 0.527878
vt 0.959985 0.527388
vt 0.949057 0.513789
vt 0.959666 0.513781
vt 0.958428 0.437887
vt 0.968717 0.440475
vt 0.962175 0.424301
vt 0.972336 0.427353
vt 0.916395 0.406740
vt 0.930006 0.406740
vt 0.930006 0.480602
vt 0.916395 0.480602
vt 0.996767 0.221298
vt 0.982674 0.221298
vt 0.982674 0.144820
vt 0.996767 0.144820
s 0
f 1/1/1 2/2/1 4/3/1 3/4/1
f 3/4/2 4/3/2 8/5/2 7/6/2
f 7/6/3 8/5/3 6/7/3 5/8/3
f 5/8/4 6/7/4 2/9/4 1/10/4
f 3/11/5 7/12/5 5/13/5 1/14/5
f 8/15/6 4/16/6 2/17/6 6/18/6
f 9/19/1 10/20/1 12/21/1 11/22/1
f 11/22/2 12/21/2 16/23/2 15/24/2
f 15/24/3 16/23/3 14/25/3 13/26/3
f 13/26/4 14/25/4 10/27/4 9/28/4
f 11/29/5 15/30/5 13/31/5 9/32/5
f 16/33/6 12/34/6 10/35/6 14/36/6
f 17/37/1 18/38/1 20/39/1 19/40/1
f 19/40/2 20/39/2 24/41/2 23/42/2
f 23/42/3 24/41/3 22/43/3 21/44/3
f 21/44/4 22/43/4 18/45/4 17/46/4
f 19/47/5 23/48/5 21/49/5 17/50/5
f 24/51/6 20/52/6 18/53/6 22/54/6
f 25/55/1 26/56/1 28/57/1 27/58/1
f 27/58/2 28/57/2 32/59/2 31/60/2
f 31/60/3 32/59/3 30/61/3 29/62/3
f 29/62/4 30/61/4 26/63/4 25/64/4
f 27/65/5 31/66/5 29/67/5 25/68/5
f 32/69/6 28/70/6 26/71/6 30/72/6
