# Blender 4.2.4 LTS
# www.blender.org
o Cube.031
v -0.020377 -0.012953 -0.001538
v -0.020377 0.012953 -0.001538
v -0.022019 -0.013998 -0.001620
v -0.000637 -0.012953 -0.001538
v -0.000637 0.012953 -0.001538
v -0.000637 -0.013998 -0.001620
v 0.000636 -0.012953 -0.001538
v 0.020376 -0.012953 -0.001538
v 0.000636 0.012953 -0.001538
v 0.000636 -0.013998 -0.001620
v 0.022019 -0.013998 -0.001620
v 0.000636 -0.013998 -0.000512
v 0.022019 -0.013998 -0.000512
v -0.000637 -0.013998 -0.000512
v 0.000636 -0.013998 0.000595
v 0.000636 -0.012953 0.000513
v 0.022019 -0.013998 0.000595
v -0.000637 -0.013998 0.000595
v -0.022019 -0.013998 0.000595
v -0.000637 -0.012953 0.000513
v -0.020377 -0.012953 0.000513
v -0.000637 -0.012953 0.002563
v -0.020377 -0.012953 0.002563
v 0.000636 -0.012953 0.002563
v -0.000637 0.012953 0.002563
v -0.020377 0.012953 0.002563
v -0.000637 0.012953 0.000513
v 0.000636 0.012953 0.002563
v 0.020376 0.012953 0.002563
v 0.000636 0.012953 0.000513
v 0.020376 0.012953 0.000513
v 0.000636 0.013997 0.000595
v 0.022019 0.013997 0.000595
v -0.000637 0.013997 0.000595
v 0.000636 0.013997 -0.000512
v 0.022019 0.013997 -0.000512
v 0.000636 0.013997 -0.001620
v -0.000637 0.013997 -0.000512
v -0.022019 0.013997 -0.000512
v -0.000637 0.013997 -0.001620
v -0.022019 0.013997 -0.001620
v -0.022019 -0.013998 -0.000512
v -0.022019 0.013997 0.000595
v -0.020377 0.012953 0.000513
v 0.022019 0.013997 -0.001620
v 0.020376 0.012953 -0.001538
v 0.020376 -0.012953 0.000513
v 0.020376 -0.012953 0.002563
v -0.016614 -0.011264 0.001761
v -0.016614 0.010692 -0.001363
v -0.016614 -0.010693 0.005776
v -0.016614 0.011264 0.002652
v -0.004249 -0.011264 0.001761
v -0.004249 0.010692 -0.001363
v -0.004249 -0.010693 0.005776
v -0.004249 0.011264 0.002652
v 0.004281 -0.011264 0.001761
v 0.004281 0.010692 -0.001363
v 0.004281 -0.010693 0.005776
v 0.016647 -0.011264 0.001761
v 0.016647 -0.010693 0.005776
v 0.016647 0.010692 -0.001363
v 0.016647 0.011264 0.002652
v 0.004281 0.011264 0.002652
vn -0.0000 -0.0000 -1.0000
vn 0.0499 -0.0000 -0.9988
vn -0.0000 0.0788 -0.9969
vn -0.0000 0.0789 -0.9969
vn -0.0000 -1.0000 -0.0000
vn -0.0000 0.0788 0.9969
vn -0.0000 0.0782 0.9969
vn -0.0000 -0.0000 1.0000
vn -0.0000 1.0000 -0.0000
vn -0.0000 -0.0783 0.9969
vn -0.0000 -0.0788 -0.9969
vn -0.0000 -0.0783 -0.9969
vn -1.0000 -0.0000 -0.0000
vn 0.0499 -0.0000 0.9988
vn 0.0502 -0.0000 0.9987
vn -0.0504 -0.0000 -0.9987
vn 1.0000 -0.0000 -0.0000
vn -0.0504 -0.0000 0.9987
vn -0.0000 0.1409 0.9900
vn -0.0000 -0.1409 -0.9900
vn -0.0000 -0.9900 0.1408
vn -0.0000 0.9900 -0.1410
vt 0.386422 0.499070
vt 0.386387 0.553423
vt 0.315085 0.553427
vt 0.315053 0.499065
vt 0.389270 0.557949
vt 0.312204 0.557954
vt 0.389309 0.499071
vt 0.315053 0.495558
vt 0.386422 0.495563
vt 0.389310 0.495563
vt 0.386421 0.441172
vt 0.389309 0.436645
vt 0.315082 0.441202
vt 0.186929 0.406357
vt 0.190484 0.406357
vt 0.190484 0.474954
vt 0.186929 0.474954
vt 0.186929 0.402273
vt 0.190483 0.402273
vt 0.183378 0.406357
vt 0.183378 0.474954
vt 0.183378 0.402273
vt 0.845184 0.813218
vt 0.845197 0.819896
vt 0.839699 0.819906
vt 0.839686 0.813228
vt 0.839466 0.701054
vt 0.844982 0.709663
vt 0.183378 0.333679
vt 0.186929 0.333679
vt 0.845400 0.923451
vt 0.839918 0.932075
vt 0.503431 0.112769
vt 0.497785 0.112769
vt 0.497785 0.058404
vt 0.503431 0.058404
vt 0.503431 0.054898
vt 0.497785 0.054898
vt 0.855033 0.907755
vt 0.855033 0.818361
vt 0.972351 0.818361
vt 0.972351 0.907755
vt 0.972351 0.812596
vt 0.855033 0.812596
vt 0.503431 0.238479
vt 0.497785 0.238479
vt 0.497785 0.184114
vt 0.503431 0.184114
vt 0.503431 0.241985
vt 0.497785 0.241985
vt 0.855033 0.723201
vt 0.972351 0.723201
vt 0.503431 0.296349
vt 0.497785 0.296349
vt 0.981721 0.709662
vt 0.987231 0.701054
vt 0.987011 0.813228
vt 0.981518 0.813217
vt 0.981505 0.819896
vt 0.986998 0.819906
vt 0.183377 0.102595
vt 0.186929 0.102595
vt 0.186929 0.171193
vt 0.183377 0.171193
vt 0.183377 0.175276
vt 0.186929 0.175276
vt 0.190483 0.102595
vt 0.190483 0.171192
vt 0.190483 0.175276
vt 0.186929 0.243870
vt 0.183378 0.243870
vt 0.190483 0.243870
vt 0.312168 0.499066
vt 0.312168 0.495558
vt 0.190483 0.333679
vt 0.981302 0.923451
vt 0.986779 0.932075
vt 0.312201 0.436673
vt 0.389297 0.436640
vt 0.186928 0.012787
vt 0.190483 0.012787
vt 0.183377 0.012787
vt 0.845819 0.709130
vt 0.840371 0.700479
vt 0.503431 0.367695
vt 0.497785 0.367695
vt 0.497785 0.000534
vt 0.503431 0.000534
vt 0.962237 0.484496
vt 0.973405 0.484495
vt 0.973410 0.545573
vt 0.962241 0.545572
vt 0.662815 0.378951
vt 0.628761 0.378951
vt 0.628761 0.317872
vt 0.662815 0.317872
vt 0.973407 0.436678
vt 0.962238 0.436677
vt 0.962237 0.375601
vt 0.973406 0.375599
vt 0.741361 0.378460
vt 0.707307 0.378460
vt 0.707307 0.317384
vt 0.741361 0.317384
vt 0.973405 0.470731
vt 0.962237 0.470731
vt 0.973406 0.579627
vt 0.962237 0.579625
vt 0.701845 0.378948
vt 0.667789 0.378948
vt 0.667789 0.317872
vt 0.701845 0.317872
vt 0.345560 0.698218
vt 0.334391 0.698219
vt 0.334387 0.637140
vt 0.345556 0.637141
vt 0.391279 0.698698
vt 0.380110 0.698698
vt 0.380112 0.664642
vt 0.391280 0.664642
vt 0.380110 0.603565
vt 0.391279 0.603563
vt 0.334391 0.603084
vt 0.345560 0.603085
vt 0.625125 0.378951
vt 0.591069 0.378951
vt 0.591069 0.317872
vt 0.625125 0.317872
s 0
f 4/1/1 1/2/1 2/3/1 5/4/1
f 1/2/2 3/5/2 41/6/2 2/3/2
f 4/1/3 6/7/3 3/5/4 1/2/3
f 5/4/1 9/8/1 7/9/1 4/1/1
f 4/1/3 7/9/3 10/10/3 6/7/3
f 8/11/3 11/12/3 10/10/3 7/9/3
f 8/11/1 7/9/1 9/8/1 46/13/1
f 12/14/5 10/15/5 11/16/5 13/17/5
f 12/14/5 14/18/5 6/19/5 10/15/5
f 15/20/5 12/14/5 13/17/5 17/21/5
f 15/20/5 18/22/5 14/18/5 12/14/5
f 16/23/6 20/24/6 18/25/6 15/26/6
f 16/23/6 15/26/6 17/27/6 47/28/6
f 19/29/5 42/30/5 14/18/5 18/22/5
f 21/31/7 19/32/7 18/25/7 20/24/7
f 23/33/5 21/34/5 20/35/5 22/36/5
f 24/37/5 22/36/5 20/35/5 16/38/5
f 23/39/8 22/40/8 25/41/8 26/42/8
f 28/43/8 25/41/8 22/40/8 24/44/8
f 25/45/9 27/46/9 44/47/9 26/48/9
f 25/45/9 28/49/9 30/50/9 27/46/9
f 24/44/8 48/51/8 29/52/8 28/43/8
f 29/53/9 31/54/9 30/50/9 28/49/9
f 31/55/10 33/56/10 32/57/10 30/58/10
f 27/59/10 30/58/10 32/57/10 34/60/10
f 33/61/9 36/62/9 35/63/9 32/64/9
f 34/65/9 32/64/9 35/63/9 38/66/9
f 36/62/9 45/67/9 37/68/9 35/63/9
f 38/66/9 35/63/9 37/68/9 40/69/9
f 34/65/9 38/66/9 39/70/9 43/71/9
f 38/66/9 40/69/9 41/72/9 39/70/9
f 2/3/11 41/6/11 40/73/11 5/4/11
f 9/8/12 5/4/12 40/73/12 37/74/12
f 3/75/13 42/30/13 39/70/13 41/72/13
f 42/30/13 19/29/13 43/71/13 39/70/13
f 44/76/14 43/77/14 19/32/15 21/31/14
f 27/59/10 34/60/10 43/77/10 44/76/10
f 21/34/13 23/33/13 26/48/13 44/47/13
f 42/30/5 3/75/5 6/19/5 14/18/5
f 9/8/12 37/74/12 45/78/12 46/13/12
f 46/13/16 45/78/16 11/79/16 8/11/16
f 13/80/17 11/81/17 45/67/17 36/62/17
f 17/82/17 13/80/17 36/62/17 33/61/17
f 47/83/18 17/84/18 33/56/18 31/55/18
f 48/85/17 47/86/17 31/54/17 29/53/17
f 24/37/5 16/38/5 47/87/5 48/88/5
f 49/89/13 51/90/13 52/91/13 50/92/13
f 51/93/19 55/94/19 56/95/19 52/96/19
f 55/97/17 53/98/17 54/99/17 56/100/17
f 53/101/20 49/102/20 50/103/20 54/104/20
f 51/105/21 49/106/21 53/98/21 55/97/21
f 56/107/22 54/108/22 50/92/22 52/91/22
f 60/109/20 57/110/20 58/111/20 62/112/20
f 57/113/13 59/114/13 64/115/13 58/116/13
f 59/117/21 57/118/21 60/119/21 61/120/21
f 61/120/17 60/119/17 62/121/17 63/122/17
f 63/123/22 62/124/22 58/116/22 64/115/22
f 59/125/19 61/126/19 63/127/19 64/128/19
