# Blender 4.2.4 LTS
# www.blender.org
o Plane.001
v -0.675577 -0.071507 -0.001418
v -0.620062 -0.071507 -0.001418
v -0.675577 -0.000745 0.004478
v -0.620062 -0.000745 0.004478
v -0.647819 -0.071507 -0.001418
v -0.647819 -0.000745 0.004478
v -0.675577 -0.017523 -0.001560
v -0.675577 -0.035518 -0.001513
v -0.675577 -0.053512 -0.001466
v -0.620062 -0.053512 -0.001466
v -0.620062 -0.035518 -0.001513
v -0.620062 -0.017523 -0.001560
v -0.647819 -0.053512 -0.001466
v -0.647819 -0.035518 -0.001513
v -0.647819 -0.017523 -0.001560
v 0.572855 0.053027 -0.001409
v 0.633920 0.053027 -0.001409
v 0.572855 0.132201 -0.001617
v 0.633920 0.132201 -0.001617
v 0.603388 0.053027 -0.001409
v 0.603388 0.132201 -0.001617
v 0.572855 0.112407 -0.001565
v 0.572855 0.092614 -0.001513
v 0.572855 0.072820 -0.001461
v 0.633920 0.072820 -0.001461
v 0.633920 0.092614 -0.001513
v 0.633920 0.112407 -0.001565
v 0.603388 0.072820 -0.001461
v 0.603388 0.092614 -0.001513
v 0.603388 0.112407 -0.001565
v 0.481995 -0.000136 0.007930
v 0.536716 -0.026690 0.007894
v 0.516458 0.070970 -0.001617
v 0.571179 0.044416 0.007057
v 0.509281 -0.013289 0.007894
v 0.543744 0.057817 -0.001617
v 0.507909 0.053467 -0.001565
v 0.499446 0.035682 0.001346
v 0.490826 0.017615 0.005629
v 0.545266 -0.009187 0.003467
v 0.553953 0.008598 0.000279
v 0.562778 0.026666 -0.001565
v 0.517831 0.004214 0.003467
v 0.526518 0.021999 0.000279
v 0.535343 0.040067 -0.001565
v -0.620062 -0.008526 -0.000180
v -0.647819 -0.008526 -0.000180
v -0.675577 -0.008526 -0.000180
v -0.675577 -0.026520 -0.001537
v -0.620062 -0.026520 -0.001537
v -0.647819 -0.026520 -0.001537
v -0.620062 -0.004027 0.002149
v -0.647819 -0.004027 0.002149
v -0.675577 -0.004027 0.002149
v 0.525554 0.066586 -0.001617
v 0.534649 0.062201 -0.001617
v 0.500186 -0.008905 0.007906
v 0.491091 -0.004520 0.007918
v 0.508686 0.008681 0.003467
v 0.499541 0.013148 0.003467
v 0.517419 0.026560 0.000266
v 0.508320 0.031121 0.000253
v 0.526199 0.044534 -0.001565
v 0.517054 0.049000 -0.001565
v 0.566979 0.035541 0.000673
v 0.539544 0.048942 -0.001591
v 0.512183 0.062219 -0.001591
v 0.521304 0.057793 -0.001591
v 0.530424 0.053367 -0.001591
v -0.655866 -0.134401 -0.001409
v -0.571004 -0.134401 -0.001409
v -0.655866 -0.080807 -0.001617
v -0.571004 -0.080807 -0.001617
v -0.613435 -0.134401 -0.001409
v -0.613435 -0.080807 -0.001617
v -0.655866 -0.094205 -0.001565
v -0.655866 -0.107604 -0.001513
v -0.655866 -0.121002 -0.001461
v -0.571004 -0.121002 -0.001461
v -0.571004 -0.107604 -0.001513
v -0.571004 -0.094205 -0.001565
v -0.613435 -0.121002 -0.001461
v -0.613435 -0.107604 -0.001513
v -0.613435 -0.094205 -0.001565
vn -0.0000 0.0026 1.0000
vn -0.0000 -0.5787 0.8155
vn -0.0000 -0.0747 0.9972
vn 0.1710 0.1034 0.9798
vn 0.0973 0.1991 0.9751
vn 0.0011 0.0024 1.0000
vn -0.2850 -0.2008 0.9373
vn -0.1433 -0.1002 0.9846
vn 0.0513 0.0424 0.9978
vn 0.1641 0.0875 0.9826
vn 0.1987 0.0979 0.9752
vn 0.0836 0.1711 0.9817
vn 0.0550 0.1125 0.9921
vn -0.0210 -0.0010 0.9998
vn 0.0836 0.1710 0.9817
vn 0.0550 0.1126 0.9921
vn -0.0005 0.0203 0.9998
vn -0.0000 -0.3098 0.9508
vn -0.0000 -0.5205 0.8539
vn 0.0012 0.0024 1.0000
vn 0.1343 0.1516 0.9793
vn 0.1418 0.1346 0.9807
vn 0.0549 0.1124 0.9921
vn 0.1098 0.1000 0.9889
vn 0.0205 0.0422 0.9989
vn 0.0360 0.0424 0.9985
vn -0.1861 -0.1445 0.9718
vn -0.0927 -0.0712 0.9931
vn -0.0000 0.0039 1.0000
vt 0.253324 0.556383
vt 0.455063 0.556383
vt 0.455063 0.585632
vt 0.253324 0.585632
vt 0.051585 0.556383
vt 0.051585 0.585632
vt 0.051585 0.061063
vt 0.253324 0.061063
vt 0.253324 0.191845
vt 0.051585 0.191845
vt 0.253324 0.322628
vt 0.051585 0.322628
vt 0.051585 0.388019
vt 0.253324 0.388019
vt 0.253324 0.453410
vt 0.051585 0.453410
vt 0.455063 0.061063
vt 0.455062 0.191845
vt 0.455063 0.322627
vt 0.455063 0.388019
vt 0.455063 0.453410
vt 0.731807 0.389365
vt 0.923090 0.389365
vt 0.923090 0.513371
vt 0.731807 0.513371
vt 0.540522 0.389365
vt 0.540522 0.513371
vt 0.540522 0.017351
vt 0.731807 0.017351
vt 0.731807 0.141356
vt 0.540522 0.141356
vt 0.731807 0.265360
vt 0.540522 0.265360
vt 0.923090 0.017351
vt 0.923090 0.141356
vt 0.923090 0.265360
vt 0.756244 0.918489
vt 0.922396 0.921006
vt 0.926582 0.984410
vt 0.754835 0.971757
vt 0.701211 0.917610
vt 0.700074 0.970738
vt 0.705822 0.537955
vt 0.760534 0.538621
vt 0.759738 0.646848
vt 0.704644 0.646397
vt 0.758766 0.755492
vt 0.703623 0.755500
vt 0.757642 0.865153
vt 0.702338 0.864452
vt 0.926070 0.539896
vt 0.925223 0.648192
vt 0.924342 0.756888
vt 0.923449 0.866426
vt 0.253324 0.519566
vt 0.051585 0.519566
vt 0.455063 0.519566
vt 0.594102 0.755155
vt 0.648500 0.755469
vt 0.647058 0.863752
vt 0.591828 0.863110
vt 0.595382 0.644208
vt 0.649615 0.645971
vt 0.596442 0.536094
vt 0.651125 0.537314
vt 0.591187 0.915949
vt 0.646192 0.916766
vt 0.645304 0.969754
vt 0.590532 0.968787
vt 0.265172 0.890280
vt 0.495228 0.891615
vt 0.494806 0.964261
vt 0.264750 0.962925
vt 0.035115 0.888944
vt 0.034693 0.961590
vt 0.036380 0.671007
vt 0.266437 0.672342
vt 0.266015 0.744988
vt 0.035958 0.743653
vt 0.265593 0.817634
vt 0.035536 0.816298
vt 0.496493 0.673678
vt 0.496072 0.746324
vt 0.495650 0.818969
s 1
f 53/1/19 52/2/19 4/3/2 6/4/2
f 54/5/19 53/1/19 6/4/2 3/6/2
f 1/7/1 5/8/1 13/9/1 9/10/1
f 9/10/1 13/9/1 14/11/1 8/12/1
f 49/13/1 51/14/1 15/15/3 7/16/3
f 5/8/1 2/17/1 10/18/1 13/9/1
f 13/9/1 10/18/1 11/19/1 14/11/1
f 51/14/1 50/20/1 12/21/3 15/15/3
f 30/22/1 27/23/1 19/24/1 21/25/1
f 22/26/1 30/22/1 21/25/1 18/27/1
f 16/28/1 20/29/1 28/30/1 24/31/1
f 24/31/1 28/30/1 29/32/1 23/33/1
f 23/33/1 29/32/1 30/22/1 22/26/1
f 20/29/1 17/34/1 25/35/1 28/30/1
f 28/30/1 25/35/1 26/36/1 29/32/1
f 29/32/1 26/36/1 27/23/1 30/22/1
f 66/37/28 65/38/27 34/39/7 36/40/8
f 69/41/20 66/37/28 36/40/8 56/42/20
f 57/43/5 35/44/5 43/45/15 59/46/15
f 59/46/15 43/45/15 44/47/16 61/48/23
f 61/48/23 44/47/16 45/49/17 63/50/25
f 35/44/5 32/51/5 40/52/12 43/45/15
f 43/45/15 40/52/12 41/53/13 44/47/16
f 44/47/16 41/53/13 42/54/14 45/49/17
f 7/16/3 15/15/3 47/55/18 48/56/18
f 15/15/3 12/21/3 46/57/18 47/55/18
f 14/11/1 11/19/1 50/20/1 51/14/1
f 8/12/1 14/11/1 51/14/1 49/13/1
f 48/56/18 47/55/18 53/1/19 54/5/19
f 47/55/18 46/57/18 52/2/19 53/1/19
f 38/58/10 62/59/24 64/60/26 37/61/9
f 62/59/24 61/48/23 63/50/25 64/60/26
f 39/62/11 60/63/22 62/59/24 38/58/10
f 60/63/22 59/46/15 61/48/23 62/59/24
f 31/64/4 58/65/21 60/63/22 39/62/11
f 58/65/21 57/43/5 59/46/15 60/63/22
f 67/66/6 68/67/20 55/68/20 33/69/6
f 68/67/20 69/41/20 56/42/20 55/68/20
f 64/60/26 63/50/25 69/41/20 68/67/20
f 37/61/9 64/60/26 68/67/20 67/66/6
f 63/50/25 45/49/17 66/37/28 69/41/20
f 45/49/17 42/54/14 65/38/27 66/37/28
f 84/70/29 81/71/29 73/72/29 75/73/29
f 76/74/29 84/70/29 75/73/29 72/75/29
f 70/76/29 74/77/29 82/78/29 78/79/29
f 78/79/29 82/78/29 83/80/29 77/81/29
f 77/81/29 83/80/29 84/70/29 76/74/29
f 74/77/29 71/82/29 79/83/29 82/78/29
f 82/78/29 79/83/29 80/84/29 83/80/29
f 83/80/29 80/84/29 81/71/29 84/70/29
