# Blender 4.2.4 LTS
# www.blender.org
o Cube.030
v -0.053106 0.025272 0.066398
v 0.053105 0.025272 0.066398
v 0.053105 0.188841 0.066398
v -0.053106 0.188841 0.066398
v 0.053105 0.025272 -0.071009
v -0.053105 0.025272 -0.071009
v 0.053105 0.188841 -0.071009
v -0.053105 0.188841 -0.071009
v -0.053105 0.171426 -0.071009
v 0.053105 0.171426 -0.071009
v 0.053105 0.171426 0.066398
v -0.053106 0.171426 0.066398
v 0.068703 0.188841 0.050800
v 0.068703 0.188841 -0.055411
v -0.068704 0.188841 -0.055411
v -0.068704 0.188841 0.050799
v 0.053105 0.188841 -0.055411
v -0.053105 0.188841 -0.055411
v -0.053105 0.188841 0.050799
v 0.053105 0.188841 0.050800
v 0.072024 0.171426 -0.074330
v 0.072024 0.188841 -0.074330
v 0.072024 0.171426 0.069719
v 0.072024 0.025272 0.069719
v -0.072025 0.171426 0.069719
v -0.072025 0.025272 0.069719
v -0.072025 0.171426 -0.074330
v -0.072025 0.025272 -0.074330
v 0.072024 0.025272 -0.074330
v 0.072024 0.188841 0.069719
v -0.072025 0.188841 0.069719
v -0.072025 0.188841 -0.074330
v -0.056427 0.171426 0.069719
v -0.056427 0.025272 0.069719
v 0.056426 0.025272 0.069719
v 0.056426 0.171426 0.069719
v 0.056426 0.171426 -0.074330
v 0.056426 0.025272 -0.074330
v -0.056427 0.025272 -0.074330
v -0.056427 0.171426 -0.074330
v 0.056426 0.188841 -0.058732
v 0.056426 0.188841 -0.074330
v -0.056427 0.188841 -0.074330
v -0.056427 0.188841 -0.058732
v -0.056427 0.188841 0.069719
v 0.056426 0.188841 0.069719
v 0.056426 0.188841 0.054121
v -0.056427 0.188841 0.054121
v 0.072024 0.025272 -0.058732
v 0.072024 0.025272 0.054121
v -0.072025 0.188841 -0.058732
v -0.072025 0.188841 0.054121
v 0.072024 0.171426 0.054121
v 0.072024 0.171426 -0.058732
v -0.072025 0.171426 -0.058732
v -0.072025 0.025272 -0.058732
v -0.072025 0.025272 0.054121
v -0.072025 0.171426 0.054121
v 0.072024 0.188841 -0.058732
v 0.072024 0.188841 0.054121
v 0.077597 0.171426 0.058486
v 0.077597 0.171426 -0.063098
v 0.077597 0.188841 -0.063098
v 0.077597 0.188841 0.058486
v -0.060792 0.171426 0.075292
v 0.060792 0.171426 0.075292
v 0.060792 0.188841 0.075292
v -0.060792 0.188841 0.075292
v -0.077598 0.171426 -0.063098
v -0.077598 0.171426 0.058486
v -0.077598 0.188841 -0.063098
v -0.077598 0.188841 0.058486
v 0.060792 0.171426 -0.079903
v -0.060792 0.171426 -0.079903
v 0.060792 0.188841 -0.079903
v -0.060792 0.188841 -0.079903
v 0.077597 0.171426 -0.079903
v 0.077597 0.188841 -0.079903
v 0.077597 0.188841 0.075292
v 0.077597 0.171426 0.075292
v -0.077598 0.188841 0.075292
v -0.077598 0.171426 0.075292
v -0.077598 0.188841 -0.079903
v -0.077598 0.171426 -0.079903
v -0.053106 0.001161 0.066398
v 0.053105 0.001161 0.066398
v -0.053105 0.001161 -0.071009
v 0.053105 0.001161 -0.071009
v 0.053105 0.018575 -0.071009
v -0.053105 0.018575 -0.071009
v -0.053106 0.018575 0.066398
v 0.053105 0.018575 0.066398
v -0.068704 0.001161 0.050799
v -0.068704 0.001161 -0.055411
v 0.068703 0.001161 -0.055411
v 0.068703 0.001161 0.050800
v 0.068703 0.018575 0.050800
v 0.068703 0.018575 -0.055411
v -0.068704 0.018575 -0.055411
v -0.068704 0.018575 0.050799
v -0.053105 0.001161 -0.055411
v 0.053105 0.001161 -0.055411
v 0.053105 0.001161 0.050800
v -0.053105 0.001161 0.050799
v -0.072025 0.018575 -0.074330
v -0.072025 0.001161 -0.074330
v -0.072025 0.018575 0.069719
v 0.072024 0.018575 0.069719
v 0.072024 0.018575 -0.074330
v -0.072025 0.001161 0.069719
v 0.072024 0.001161 0.069719
v 0.072024 0.001161 -0.074330
v 0.056426 0.018575 0.069719
v -0.056427 0.018575 0.069719
v -0.056427 0.018575 -0.074330
v 0.056426 0.018575 -0.074330
v -0.056427 0.001161 -0.058732
v -0.056427 0.001161 -0.074330
v 0.056426 0.001161 -0.074330
v 0.056426 0.001161 -0.058732
v 0.056426 0.001161 0.069719
v -0.056427 0.001161 0.069719
v -0.056427 0.001161 0.054121
v 0.056426 0.001161 0.054121
v 0.072024 0.001161 -0.058732
v 0.072024 0.001161 0.054121
v -0.072025 0.018575 0.054121
v -0.072025 0.018575 -0.058732
v 0.072024 0.018575 -0.058732
v 0.072024 0.018575 0.054121
v -0.072025 0.001161 -0.058732
v -0.072025 0.001161 0.054121
v -0.077598 0.018575 0.058486
v -0.077598 0.018575 -0.063098
v -0.077598 0.001161 -0.063098
v -0.077598 0.001161 0.058486
v 0.060792 0.018575 0.075292
v -0.060792 0.018575 0.075292
v -0.060792 0.001161 0.075292
v 0.060792 0.001161 0.075292
v 0.077597 0.018575 -0.063098
v 0.077597 0.018575 0.058486
v 0.077597 0.001161 -0.063098
v 0.077597 0.001161 0.058486
v -0.060792 0.018575 -0.079903
v 0.060792 0.018575 -0.079903
v -0.060792 0.001161 -0.079903
v 0.060792 0.001161 -0.079903
v -0.077598 0.018575 -0.079903
v -0.077598 0.001161 -0.079903
v -0.077598 0.001161 0.075292
v -0.077598 0.018575 0.075292
v 0.077597 0.001161 0.075292
v 0.077597 0.018575 0.075292
v 0.077597 0.001161 -0.079903
v 0.077597 0.018575 -0.079903
v -0.053106 0.136284 0.066398
v -0.053106 0.120104 0.066398
v 0.053105 0.120104 0.066398
v 0.053105 0.136284 0.066398
v 0.053105 0.136284 -0.071009
v 0.053105 0.120104 -0.071009
v -0.053105 0.120104 -0.071009
v -0.053105 0.136284 -0.071009
v 0.072024 0.136284 0.069719
v 0.072024 0.120104 0.069719
v -0.072025 0.136284 0.069719
v -0.072025 0.120104 0.069719
v -0.072025 0.136284 -0.074330
v -0.072025 0.120104 -0.074330
v 0.072024 0.120104 -0.074330
v 0.072024 0.136284 -0.074330
v -0.056427 0.136284 0.069719
v -0.056427 0.120104 0.069719
v 0.056426 0.120104 0.069719
v 0.056426 0.136284 0.069719
v 0.056426 0.136284 -0.074330
v 0.056426 0.120104 -0.074330
v -0.056427 0.120104 -0.074330
v -0.056427 0.136284 -0.074330
v 0.072024 0.136284 0.054121
v 0.072024 0.120104 0.054121
v 0.072024 0.120104 -0.058732
v 0.072024 0.136284 -0.058732
v -0.072025 0.136284 -0.058732
v -0.072025 0.120104 -0.058732
v -0.072025 0.120104 0.054121
v -0.072025 0.136284 0.054121
v -0.053106 0.171426 0.054181
v 0.053105 0.171426 0.054181
v 0.053105 0.120104 0.054181
v 0.053105 0.025272 0.054181
v -0.053106 0.025272 0.054181
v -0.053106 0.136284 0.054181
v 0.053105 0.136284 0.054181
v -0.053106 0.120104 0.054181
vn -0.0000 1.0000 -0.0000
vn 0.7071 -0.0000 -0.7071
vn -0.7071 -0.0000 -0.7071
vn -0.7071 -0.0000 0.7071
vn -0.0000 -1.0000 -0.0000
vn 0.7071 -0.0000 0.7071
vn -0.0000 -0.0000 1.0000
vn 1.0000 -0.0000 -0.0000
vn -0.0000 -0.0000 -1.0000
vn -1.0000 -0.0000 -0.0000
vt 0.636860 0.931530
vt 0.651846 0.931530
vt 0.648655 0.934720
vt 0.633670 0.934720
vt 0.753881 0.829494
vt 0.753881 0.814509
vt 0.757072 0.811318
vt 0.757072 0.826303
vt 0.651846 0.829494
vt 0.636860 0.829494
vt 0.633670 0.826303
vt 0.648655 0.826303
vt 0.651846 0.814509
vt 0.648655 0.811318
vt 0.840140 0.777408
vt 0.888563 0.774681
vt 0.889699 0.778927
vt 0.840076 0.781690
vt 0.753881 0.946515
vt 0.753881 0.931530
vt 0.757072 0.934720
vt 0.757072 0.949705
vt 0.833755 0.686955
vt 0.817454 0.689530
vt 0.815024 0.685849
vt 0.833373 0.682540
vt 0.651846 0.946515
vt 0.648655 0.949705
vt 0.492579 0.584122
vt 0.546511 0.578585
vt 0.548093 0.583328
vt 0.492618 0.588957
vt 0.772057 0.949705
vt 0.777411 0.955059
vt 0.761266 0.955059
vt 0.464944 0.578150
vt 0.461663 0.582468
vt 0.461663 0.480683
vt 0.464589 0.484801
vt 0.484298 0.480325
vt 0.483513 0.475018
vt 0.683469 0.582899
vt 0.683469 0.571718
vt 0.687464 0.574847
vt 0.687464 0.586893
vt 0.493784 0.479843
vt 0.548454 0.486836
vt 0.758876 0.028439
vt 0.860911 0.028584
vt 0.860741 0.148853
vt 0.758706 0.148708
vt 0.768866 0.829494
vt 0.768866 0.931530
vt 0.580218 0.582899
vt 0.591398 0.582899
vt 0.588269 0.586893
vt 0.576223 0.586893
vt 0.772057 0.826303
vt 0.772057 0.934720
vt 0.814498 0.773073
vt 0.811356 0.777300
vt 0.777411 0.938914
vt 0.633670 0.949705
vt 0.672289 0.479647
vt 0.591398 0.479647
vt 0.588269 0.475653
vt 0.675418 0.475653
vt 0.772057 0.811318
vt 0.633670 0.811318
vt 0.644461 0.955059
vt 0.672289 0.582899
vt 0.683469 0.582899
vt 0.687464 0.586893
vt 0.675418 0.586893
vt 0.580218 0.479647
vt 0.580218 0.490828
vt 0.576223 0.487698
vt 0.576223 0.475653
vt 0.880313 0.479786
vt 0.899547 0.479786
vt 0.899547 0.494771
vt 0.880313 0.494771
vt 0.812655 0.670447
vt 0.832424 0.667408
vt 0.580218 0.571718
vt 0.576223 0.574848
vt 0.830355 0.796212
vt 0.809270 0.794397
vt 0.831520 0.781213
vt 0.880313 0.618173
vt 0.899547 0.618173
vt 0.899547 0.633158
vt 0.880313 0.633158
vt 0.777411 0.805965
vt 0.777411 0.822109
vt 0.880313 0.603188
vt 0.899547 0.603188
vt 0.829771 0.812078
vt 0.808508 0.811351
vt 0.683469 0.490828
vt 0.683469 0.479647
vt 0.687464 0.475653
vt 0.687464 0.487698
vt 0.831589 0.961326
vt 0.810673 0.961759
vt 0.810341 0.945463
vt 0.831237 0.945051
vt 0.810035 0.929170
vt 0.830916 0.928797
vt 0.761266 0.805965
vt 0.975471 0.684978
vt 0.975470 0.801783
vt 0.965939 0.801783
vt 0.965939 0.684978
vt 0.975471 0.535883
vt 0.975471 0.652689
vt 0.965939 0.652689
vt 0.965940 0.535883
vt 0.975471 0.503594
vt 0.965940 0.503594
vt 0.965940 0.386789
vt 0.975471 0.386789
vt 0.975470 0.817928
vt 0.965939 0.817928
vt 0.975471 0.519739
vt 0.965940 0.519739
vt 0.975471 0.370644
vt 0.965940 0.370644
vt 0.965940 0.354500
vt 0.975471 0.354500
vt 0.965939 0.668833
vt 0.975471 0.668833
vt 0.975472 0.237695
vt 0.965940 0.237695
vt 0.965940 0.221550
vt 0.975472 0.221550
vt 0.628316 0.955059
vt 0.628316 0.822109
vt 0.628316 0.805965
vt 0.628316 0.938914
vt 0.644461 0.805965
vt 0.599745 0.836203
vt 0.584760 0.836203
vt 0.587951 0.833013
vt 0.602936 0.833013
vt 0.482725 0.938239
vt 0.482724 0.953224
vt 0.479534 0.956415
vt 0.479534 0.941430
vt 0.584760 0.938239
vt 0.599745 0.938239
vt 0.602936 0.941430
vt 0.587951 0.941430
vt 0.584760 0.953224
vt 0.587951 0.956415
vt 0.482725 0.821218
vt 0.482725 0.836203
vt 0.479534 0.833013
vt 0.479534 0.818028
vt 0.584760 0.821218
vt 0.587951 0.818028
vt 0.915381 0.455320
vt 0.912191 0.452130
vt 0.912191 0.350094
vt 0.915381 0.346903
vt 0.464549 0.818028
vt 0.459195 0.812674
vt 0.475340 0.812674
vt 0.552074 0.488199
vt 0.555283 0.483800
vt 0.552371 0.581714
vt 0.549785 0.577577
vt 0.631882 0.770068
vt 0.646867 0.770068
vt 0.642673 0.775422
vt 0.626528 0.775422
vt 0.886922 0.370924
vt 0.883732 0.374114
vt 0.883732 0.265697
vt 0.886922 0.268888
vt 0.467739 0.938239
vt 0.467739 0.836203
vt 0.631882 0.631681
vt 0.631882 0.646666
vt 0.626528 0.642472
vt 0.626528 0.626327
vt 0.464549 0.941430
vt 0.464549 0.833013
vt 0.894582 0.695602
vt 0.897451 0.691614
vt 0.893563 0.777760
vt 0.891387 0.774165
vt 0.459195 0.828819
vt 0.602936 0.818028
vt 0.770269 0.755083
vt 0.770269 0.646666
vt 0.775623 0.642472
vt 0.775623 0.759277
vt 0.464549 0.956415
vt 0.602936 0.956415
vt 0.592145 0.812674
vt 0.631882 0.755083
vt 0.626528 0.759277
vt 0.770269 0.631681
vt 0.755284 0.631681
vt 0.759478 0.626327
vt 0.775623 0.626327
vt 0.646867 0.631681
vt 0.642673 0.626327
vt 0.459195 0.961769
vt 0.459195 0.945624
vt 0.755284 0.770068
vt 0.770269 0.770068
vt 0.775623 0.775422
vt 0.759478 0.775422
vt 0.475340 0.961769
vt 0.936440 0.506055
vt 0.936440 0.389250
vt 0.945971 0.389250
vt 0.945971 0.506055
vt 0.936440 0.655149
vt 0.936440 0.538344
vt 0.945971 0.538344
vt 0.945971 0.655149
vt 0.936440 0.687439
vt 0.945971 0.687439
vt 0.945971 0.804244
vt 0.936440 0.804244
vt 0.936440 0.373105
vt 0.945971 0.373105
vt 0.936440 0.671294
vt 0.945971 0.671294
vt 0.936440 0.224011
vt 0.945971 0.224011
vt 0.945971 0.240155
vt 0.936440 0.240155
vt 0.945971 0.820389
vt 0.936440 0.820389
vt 0.945971 0.522200
vt 0.936440 0.522200
vt 0.936440 0.356961
vt 0.945971 0.356961
vt 0.608289 0.812674
vt 0.770269 0.770068
vt 0.775623 0.775422
vt 0.608289 0.945624
vt 0.608289 0.961769
vt 0.608289 0.828819
vt 0.592145 0.961769
vt 0.550511 0.481766
vt 0.897563 0.959682
vt 0.897145 0.943421
vt 0.901121 0.943317
vt 0.901540 0.959579
vt 0.896719 0.927177
vt 0.900686 0.927066
vt 0.893253 0.810053
vt 0.892147 0.794275
vt 0.896038 0.793841
vt 0.897187 0.809855
vt 0.891456 0.694462
vt 0.893252 0.690043
vt 0.897410 0.673727
vt 0.901540 0.674727
vt 0.819555 0.479786
vt 0.819555 0.494771
vt 0.815890 0.494771
vt 0.815890 0.479786
vt 0.819555 0.603188
vt 0.819555 0.618173
vt 0.815890 0.618173
vt 0.815890 0.603188
vt 0.819555 0.633158
vt 0.815890 0.633158
vt 0.840842 0.944846
vt 0.840485 0.928628
vt 0.841213 0.961111
vt 0.839267 0.812149
vt 0.839483 0.796591
vt 0.871457 0.603188
vt 0.871457 0.618173
vt 0.871457 0.633158
vt 0.842093 0.682420
vt 0.842048 0.666952
vt 0.871457 0.479786
vt 0.871457 0.494771
vt 0.595190 0.448264
vt 0.595334 0.346229
vt 0.715603 0.346399
vt 0.715459 0.448434
vt 0.841855 0.686842
vt 0.832110 0.776871
vt 0.483517 0.583568
vt 0.493935 0.474753
vt 0.482740 0.588443
vt 0.758632 0.200611
vt 0.860668 0.200755
vt 0.734692 0.448462
vt 0.734837 0.346426
vt 0.855106 0.346596
vt 0.854962 0.448632
vt 0.860498 0.321024
vt 0.758462 0.320880
vt 0.981010 0.149023
vt 0.980937 0.200925
vt 0.734522 0.568731
vt 0.715289 0.568703
vt 0.715773 0.226130
vt 0.735007 0.226157
vt 0.638363 0.200441
vt 0.638437 0.148538
s 0
f 13/1/1 20/2/1 47/3/1 60/4/1
f 18/5/1 8/6/1 43/7/1 44/8/1
f 17/9/1 14/10/1 59/11/1 41/12/1
f 7/13/1 17/9/1 41/12/1 42/14/1
f 163/15/2 6/16/2 39/17/2 179/18/2
f 4/19/1 19/20/1 48/21/1 45/22/1
f 161/23/3 10/24/3 37/25/3 177/26/3
f 20/2/1 3/27/1 46/28/1 47/3/1
f 159/29/4 2/30/4 35/31/4 175/32/4
f 45/22/1 31/33/1 81/34/1 68/35/1
f 59/11/1 14/10/1 13/1/1 60/4/1
f 11/36/5 36/37/5 33/38/5 12/39/5
f 157/40/6 12/39/6 33/38/6 173/41/6
f 21/42/5 37/43/5 73/44/5 77/45/5
f 17/9/1 18/5/1 19/20/1 20/2/1
f 158/46/7 1/47/7 2/30/7 159/29/7
f 5/48/1 6/49/1 193/50/1 192/51/1
f 17/9/1 7/13/1 8/6/1 18/5/1
f 4/19/1 45/22/1 46/28/1 3/27/1
f 3/27/1 20/2/1 19/20/1 4/19/1
f 18/5/1 15/52/1 16/53/1 19/20/1
f 14/10/1 17/9/1 20/2/1 13/1/1
f 23/54/5 53/55/5 61/56/5 80/57/5
f 15/52/1 51/58/1 52/59/1 16/53/1
f 9/60/5 40/61/5 37/25/5 10/24/5
f 31/33/1 52/59/1 72/62/1 81/34/1
f 46/28/1 30/63/1 60/4/1 47/3/1
f 55/64/5 58/65/5 70/66/5 69/67/5
f 51/58/1 44/8/1 43/7/1 32/68/1
f 41/12/1 59/11/1 22/69/1 42/14/1
f 46/28/1 45/22/1 68/35/1 67/70/1
f 54/71/5 21/72/5 77/73/5 62/74/5
f 31/33/1 45/22/1 48/21/1 52/59/1
f 25/75/5 33/76/5 65/77/5 82/78/5
f 172/79/8 21/80/8 54/81/8 184/82/8
f 177/26/9 37/25/9 21/83/9 172/84/9
f 33/76/5 36/85/5 66/86/5 65/77/5
f 169/87/9 27/88/9 40/61/9 180/89/9
f 165/90/7 23/91/7 36/92/7 176/93/7
f 51/58/1 32/68/1 83/94/1 71/95/1
f 181/96/8 53/97/8 23/91/8 165/90/8
f 185/98/10 55/99/10 27/88/10 169/87/10
f 40/100/5 27/101/5 84/102/5 74/103/5
f 173/104/7 33/105/7 25/106/7 167/107/7
f 167/107/10 25/106/10 58/108/10 188/109/10
f 15/52/1 18/5/1 44/8/1 51/58/1
f 32/68/1 43/7/1 76/110/1 83/94/1
f 7/13/1 42/14/1 43/7/1 8/6/1
f 19/20/1 16/53/1 52/59/1 48/21/1
f 61/111/8 62/112/8 63/113/8 64/114/8
f 65/115/7 66/116/7 67/117/7 68/118/7
f 70/119/10 72/120/10 71/121/10 69/122/10
f 77/123/8 78/124/8 63/113/8 62/112/8
f 82/125/10 81/126/10 72/120/10 70/119/10
f 84/127/9 83/128/9 76/129/9 74/130/9
f 69/122/10 71/121/10 83/128/10 84/127/10
f 61/111/8 64/114/8 79/131/8 80/132/8
f 73/133/9 75/134/9 78/135/9 77/136/9
f 65/115/7 68/118/7 81/126/7 82/125/7
f 80/132/7 79/131/7 67/117/7 66/116/7
f 74/130/9 76/129/9 75/134/9 73/133/9
f 52/59/1 51/58/1 71/95/1 72/62/1
f 58/65/5 25/75/5 82/78/5 70/66/5
f 37/43/5 40/100/5 74/103/5 73/44/5
f 30/63/1 46/28/1 67/70/1 79/137/1
f 27/101/5 55/64/5 69/67/5 84/102/5
f 22/69/1 59/11/1 63/138/1 78/139/1
f 53/55/5 54/71/5 62/74/5 61/56/5
f 60/4/1 30/63/1 79/137/1 64/140/1
f 43/7/1 42/14/1 75/141/1 76/110/1
f 36/85/5 23/54/5 80/57/5 66/86/5
f 42/14/1 22/69/1 78/139/1 75/141/1
f 59/11/1 60/4/1 64/140/1 63/138/1
f 93/142/5 104/143/5 123/144/5 132/145/5
f 102/146/5 88/147/5 119/148/5 120/149/5
f 101/150/5 94/151/5 131/152/5 117/153/5
f 87/154/5 101/150/5 117/153/5 118/155/5
f 86/156/5 103/157/5 124/158/5 121/159/5
f 104/143/5 85/160/5 122/161/5 123/144/5
f 127/162/1 100/163/1 99/164/1 128/165/1
f 121/159/5 111/166/5 153/167/5 140/168/5
f 131/152/5 94/151/5 93/142/5 132/145/5
f 91/169/1 114/170/1 113/171/1 92/172/1
f 105/173/1 115/174/1 145/175/1 149/176/1
f 101/150/5 102/146/5 103/157/5 104/143/5
f 101/150/5 87/154/5 88/147/5 102/146/5
f 86/156/5 121/159/5 122/161/5 85/160/5
f 97/177/1 130/178/1 129/179/1 98/180/1
f 85/160/5 104/143/5 103/157/5 86/156/5
f 102/146/5 95/181/5 96/182/5 103/157/5
f 94/151/5 101/150/5 104/143/5 93/142/5
f 107/183/1 127/184/1 133/185/1 152/186/1
f 95/181/5 125/187/5 126/188/5 96/182/5
f 89/189/1 116/190/1 115/191/1 90/192/1
f 111/166/5 126/188/5 144/193/5 153/167/5
f 122/161/5 110/194/5 132/145/5 123/144/5
f 129/195/1 130/196/1 142/197/1 141/198/1
f 125/187/5 120/149/5 119/148/5 112/199/5
f 117/153/5 131/152/5 106/200/5 118/155/5
f 122/161/5 121/159/5 140/168/5 139/201/5
f 128/202/1 105/173/1 149/176/1 134/203/1
f 111/166/5 121/159/5 124/158/5 126/188/5
f 108/204/1 113/205/1 137/206/1 154/207/1
f 113/205/1 114/208/1 138/209/1 137/206/1
f 125/187/5 112/199/5 155/210/5 143/211/5
f 116/212/1 109/213/1 156/214/1 146/215/1
f 95/181/5 102/146/5 120/149/5 125/187/5
f 112/199/5 119/148/5 148/216/5 155/210/5
f 87/154/5 118/155/5 119/148/5 88/147/5
f 103/157/5 96/182/5 126/188/5 124/158/5
f 133/217/10 134/218/10 135/219/10 136/220/10
f 137/221/7 138/222/7 139/223/7 140/224/7
f 142/225/8 144/226/8 143/227/8 141/228/8
f 149/229/10 150/230/10 135/219/10 134/218/10
f 154/231/8 153/232/8 144/226/8 142/225/8
f 156/233/9 155/234/9 148/235/9 146/236/9
f 141/228/8 143/227/8 155/237/8 156/238/8
f 133/217/10 136/220/10 151/239/10 152/240/10
f 145/241/9 147/242/9 150/230/9 149/229/9
f 137/221/7 140/224/7 153/232/7 154/231/7
f 152/240/7 151/239/7 139/223/7 138/222/7
f 146/236/9 148/235/9 147/242/9 145/241/9
f 126/188/5 125/187/5 143/211/5 144/193/5
f 130/196/1 108/204/1 154/207/1 142/197/1
f 115/174/1 116/212/1 146/215/1 145/175/1
f 110/194/5 122/161/5 139/201/5 151/243/5
f 109/244/1 129/195/1 141/198/1 156/245/1
f 106/200/5 131/152/5 135/246/5 150/247/5
f 127/184/1 128/202/1 134/203/1 133/185/1
f 132/145/5 110/194/5 151/243/5 136/248/5
f 119/148/5 118/155/5 147/249/5 148/216/5
f 114/208/1 107/183/1 152/186/1 138/209/1
f 118/155/5 106/200/5 150/247/5 147/249/5
f 131/152/5 132/145/5 136/248/5 135/246/5
f 2/30/7 1/47/7 91/169/7 92/172/7
f 1/47/6 34/250/6 114/170/6 91/169/6
f 34/251/7 26/252/7 107/253/7 114/254/7
f 26/252/10 57/255/10 127/256/10 107/253/10
f 56/257/10 28/258/10 105/259/10 128/260/10
f 28/258/9 39/17/9 115/191/9 105/259/9
f 39/17/2 6/16/2 90/192/2 115/191/2
f 6/16/9 5/261/9 89/189/9 90/192/9
f 38/262/3 116/190/3 89/189/3 5/261/3
f 38/262/9 29/263/9 109/264/9 116/190/9
f 29/265/8 49/266/8 129/267/8 109/268/8
f 50/269/8 24/270/8 108/271/8 130/272/8
f 24/270/7 35/273/7 113/274/7 108/271/7
f 35/31/4 2/30/4 92/172/4 113/171/4
f 26/252/10 168/275/10 187/276/10 57/255/10
f 168/275/10 167/107/10 188/109/10 187/276/10
f 34/251/7 174/277/7 168/275/7 26/252/7
f 174/277/7 173/104/7 167/107/7 168/275/7
f 56/257/10 186/278/10 170/279/10 28/258/10
f 186/278/10 185/98/10 169/87/10 170/279/10
f 50/269/8 182/280/8 166/281/8 24/270/8
f 182/280/8 181/96/8 165/90/8 166/281/8
f 24/270/7 166/281/7 175/282/7 35/273/7
f 166/281/7 165/90/7 176/93/7 175/282/7
f 28/258/9 170/279/9 179/18/9 39/17/9
f 170/279/9 169/87/9 180/89/9 179/18/9
f 38/262/9 178/283/9 171/284/9 29/263/9
f 178/283/9 177/26/9 172/84/9 171/284/9
f 29/265/8 171/285/8 183/286/8 49/266/8
f 171/285/8 172/79/8 184/82/8 183/286/8
f 161/287/1 164/288/1 194/289/1 195/290/1
f 161/23/9 162/291/9 163/15/9 164/292/9
f 12/39/7 157/40/7 160/293/7 11/36/7
f 157/40/7 158/46/7 159/29/7 160/293/7
f 1/47/6 158/46/6 174/294/6 34/250/6
f 158/46/6 157/40/6 173/41/6 174/294/6
f 127/256/10 57/255/10 56/257/10 128/260/10
f 186/278/10 56/257/10 57/255/10 187/276/10
f 11/36/4 160/293/4 176/295/4 36/37/4
f 160/293/4 159/29/4 175/32/4 176/295/4
f 185/98/10 186/278/10 187/276/10 188/109/10
f 55/99/10 185/98/10 188/109/10 58/108/10
f 5/261/3 162/291/3 178/283/3 38/262/3
f 162/291/3 161/23/3 177/26/3 178/283/3
f 129/267/8 49/266/8 50/269/8 130/272/8
f 182/280/8 50/269/8 49/266/8 183/286/8
f 9/60/2 164/292/2 180/89/2 40/61/2
f 164/292/2 163/15/2 179/18/2 180/89/2
f 181/96/8 182/280/8 183/286/8 184/82/8
f 53/97/8 181/96/8 184/82/8 54/81/8
f 191/296/9 192/51/9 193/50/9 196/297/9
f 190/298/9 195/290/9 194/289/9 189/299/9
f 9/300/5 10/301/5 190/298/5 189/299/5
f 163/302/5 162/303/5 191/296/5 196/297/5
f 6/304/8 163/305/8 196/297/8 193/50/8
f 10/306/10 161/307/10 195/290/10 190/298/10
f 164/308/8 9/309/8 189/299/8 194/289/8
f 162/310/10 5/311/10 192/51/10 191/296/10
