# Blender 4.2.4 LTS
# www.blender.org
o Cylinder.006
v 0.881054 -0.177076 -0.085839
v 0.881054 0.246113 -0.085839
v 0.881054 -0.177076 -0.718574
v 0.881054 0.246113 -0.718574
v 0.862155 -0.177076 -0.085839
v 0.862155 0.246113 -0.085839
v 0.862155 -0.177076 -0.718574
v 0.862155 0.246113 -0.718574
v -0.898851 -0.164465 0.109237
v -0.898851 -0.000282 0.109237
v -0.898851 -0.164465 0.396498
v -0.887622 -0.163913 0.109237
v -0.887622 -0.163913 0.396498
v -0.887622 -0.001089 0.109237
v -0.887622 0.130900 0.109237
v -0.887622 -0.000282 0.396498
v -0.898851 -0.000282 0.396498
v -0.887622 0.129869 0.396498
v -0.898851 0.129869 0.396498
v -0.898851 0.129869 0.109237
v -0.898851 -0.164466 -0.668315
v -0.898851 -0.000282 -0.668315
v -0.898851 0.129868 -0.668315
v -0.898851 -0.164466 -0.379257
v -0.898851 -0.000282 -0.379257
v -0.898851 0.129868 -0.379257
v -0.887622 0.130900 -0.668315
v -0.887622 -0.001089 -0.668315
v -0.887622 -0.163913 -0.668315
v -0.887622 -0.163913 -0.379257
v -0.887622 -0.001089 -0.379257
v -0.887622 0.130900 -0.379257
v -0.908728 -0.164465 0.386273
v -0.908728 -0.000282 0.386273
v -0.908728 -0.164465 0.673534
v -0.897499 -0.163913 0.386273
v -0.897499 -0.163913 0.673534
v -0.897499 -0.001089 0.386273
v -0.897500 0.130900 0.386273
v -0.897499 -0.000282 0.673534
v -0.908728 -0.000282 0.673534
v -0.897499 0.129869 0.673534
v -0.908728 0.129869 0.673534
v -0.908729 0.129869 0.386273
v -0.908728 -0.164466 -0.377433
v -0.908728 -0.000282 -0.377433
v -0.908728 0.129868 -0.377433
v -0.908728 -0.164466 -0.109038
v -0.908728 -0.000282 -0.109038
v -0.908728 0.129868 -0.109038
v -0.897499 0.130900 -0.377433
v -0.897499 -0.001089 -0.377433
v -0.897499 -0.163913 -0.377433
v -0.897499 -0.163913 -0.109038
v -0.897499 -0.001089 -0.109038
v -0.897499 0.130900 -0.109038
v 0.881054 -0.177076 0.694951
v 0.881054 0.246113 0.694951
v 0.881054 -0.177076 0.062216
v 0.881054 0.246113 0.062216
v 0.862155 -0.177076 0.694951
v 0.862155 0.246113 0.694951
v 0.862155 -0.177076 0.062216
v 0.862155 0.246113 0.062216
v -0.903114 -0.164189 0.386273
v -0.903114 -0.000685 0.386273
v -0.903114 -0.000282 0.673534
v -0.903114 0.129869 0.673534
v -0.903114 0.130384 0.386273
v -0.903114 -0.164189 0.673534
v -0.893237 -0.164189 0.109237
v -0.893237 -0.000685 0.109237
v -0.893237 -0.000282 0.396498
v -0.893237 0.129869 0.396498
v -0.893237 0.130384 0.109237
v -0.893237 -0.164189 0.396498
v -0.903114 0.130384 -0.377433
v -0.903114 -0.000686 -0.377433
v -0.903114 -0.164189 -0.377433
v -0.903114 -0.164189 -0.109038
v -0.903114 -0.000685 -0.109038
v -0.903114 0.130384 -0.109038
v -0.893237 0.130384 -0.668315
v -0.893237 -0.000686 -0.668315
v -0.893237 -0.164189 -0.668315
v -0.893237 -0.164189 -0.379257
v -0.893237 -0.000686 -0.379257
v -0.893237 0.130384 -0.379257
v 0.871605 -0.177076 0.062216
v 0.871605 0.246113 0.062216
v 0.871605 -0.177076 0.694951
v 0.871605 0.246113 0.694951
v 0.871605 -0.177076 -0.718574
v 0.871605 0.246113 -0.718574
v 0.871605 -0.177076 -0.085839
v 0.871605 0.246113 -0.085839
vn 1.0000 -0.0000 -0.0000
vn -0.0000 -0.0000 -1.0000
vn -1.0000 -0.0000 -0.0000
vn -0.0000 -0.0000 1.0000
vn -0.0000 -1.0000 -0.0000
vn -0.0000 1.0000 -0.0000
vn 0.0492 -0.9988 -0.0000
vn -0.0459 0.9989 0.0009
vn -0.0915 0.9958 -0.0000
vn -0.0459 0.9989 0.0027
vt 0.282646 0.001763
vt 0.622571 0.001874
vt 0.644997 0.279020
vt 0.305073 0.278908
vt 0.279340 0.345680
vt 0.279014 0.345997
vt 0.001869 0.368423
vt 0.001432 0.368074
vt 0.278903 0.685921
vt 0.001757 0.708348
vt 0.282330 0.001437
vt 0.304723 0.279346
vt 0.279340 0.686271
vt 0.645314 0.279346
vt 0.477370 0.658961
vt 0.477531 0.781819
vt 0.393006 0.824864
vt 0.364967 0.633334
vt 0.365300 0.632386
vt 0.478008 0.658338
vt 0.478008 0.782224
vt 0.682957 0.822456
vt 0.529611 0.822567
vt 0.519873 0.721123
vt 0.711311 0.728200
vt 0.290048 0.658271
vt 0.290762 0.658636
vt 0.571282 0.633252
vt 0.696058 0.656172
vt 0.393109 0.825528
vt 0.305226 0.815834
vt 0.305861 0.815202
vt 0.649288 0.625142
vt 0.648800 0.624246
vt 0.753665 0.581883
vt 0.754238 0.582368
vt 0.732613 0.461279
vt 0.733144 0.460741
vt 0.638406 0.431643
vt 0.638059 0.432471
vt 0.562474 0.449174
vt 0.563271 0.449620
vt 0.562474 0.614374
vt 0.563182 0.613833
vt 0.674529 0.233533
vt 0.785319 0.255921
vt 0.817068 0.336456
vt 0.625382 0.322324
vt 0.794269 0.426890
vt 0.636178 0.426993
vt 0.270875 0.877109
vt 0.148017 0.877270
vt 0.104971 0.792744
vt 0.296501 0.764705
vt 0.297449 0.765039
vt 0.271498 0.877747
vt 0.147611 0.877746
vt 0.894837 0.671097
vt 0.894948 0.824442
vt 0.793503 0.834181
vt 0.800581 0.642743
vt 0.271565 0.689787
vt 0.271199 0.690501
vt 0.705633 0.782772
vt 0.728553 0.657996
vt 0.104307 0.792848
vt 0.114001 0.704965
vt 0.114633 0.705600
vt 0.797520 0.230500
vt 0.798434 0.230177
vt 0.821500 0.337650
vt 0.820938 0.338124
vt 0.934050 0.337512
vt 0.934499 0.338124
vt 0.978853 0.248005
vt 0.978059 0.247520
vt 0.974535 0.162866
vt 0.973923 0.163649
vt 0.820925 0.154437
vt 0.821317 0.155156
vt 0.777374 0.432050
vt 0.880736 0.432209
vt 0.927688 0.505797
vt 0.748003 0.526598
vt 0.923549 0.609240
vt 0.776489 0.616110
vt 0.282531 0.621636
vt 0.282650 0.281101
vt 0.559282 0.304348
vt 0.559164 0.644883
vt 0.001432 0.364539
vt 0.001758 0.364222
vt 0.278904 0.341796
vt 0.279341 0.342145
vt 0.001870 0.024298
vt 0.279015 0.001871
vt 0.282208 0.621901
vt 0.559605 0.645303
vt 0.001433 0.023948
vt 0.559605 0.304083
vt 0.704871 0.783332
vt 0.728137 0.657537
vt 0.800616 0.641933
vt 0.895560 0.670663
vt 0.793053 0.834865
vt 0.895560 0.824985
vt 0.570721 0.632490
vt 0.696517 0.655756
vt 0.712121 0.728235
vt 0.683391 0.823179
vt 0.519189 0.720672
vt 0.529069 0.823179
vt 0.776731 0.431587
vt 0.881245 0.431587
vt 0.928301 0.505374
vt 0.747280 0.526316
vt 0.776093 0.616745
vt 0.924173 0.609963
vt 0.673980 0.232942
vt 0.785937 0.255404
vt 0.817722 0.336166
vt 0.624684 0.321884
vt 0.635624 0.427621
vt 0.794714 0.427621
vt 0.279341 0.001555
vt 0.282209 0.280682
vt 0.001432 0.708664
vt 0.622921 0.001437
s 0
f 1/1/1 3/2/1 4/3/1 2/4/1
f 93/5/2 7/6/2 8/7/2 94/8/2
f 7/6/3 5/9/3 6/10/3 8/7/3
f 95/11/4 1/1/4 2/4/4 96/12/4
f 93/5/5 95/13/5 5/9/5 7/6/5
f 94/14/6 96/12/6 2/4/6 4/3/6
f 9/15/3 11/16/3 17/17/3 10/18/3
f 72/19/2 71/20/2 9/15/2 10/18/2
f 76/21/7 11/16/7 9/15/7 71/20/7
f 13/22/1 12/23/1 14/24/1 16/25/1
f 75/26/2 72/19/2 10/18/2 20/27/2
f 15/28/1 18/29/1 16/25/1 14/24/1
f 73/30/4 74/31/4 19/32/4 17/17/4
f 76/21/4 73/30/4 17/17/4 11/16/4
f 74/31/8 75/26/8 20/27/8 19/32/8
f 10/18/3 17/17/3 19/32/3 20/27/3
f 87/33/4 25/34/4 24/35/4 86/36/4
f 86/36/7 24/35/7 21/37/7 85/38/7
f 84/39/2 85/38/2 21/37/2 22/40/2
f 83/41/2 84/39/2 22/40/2 23/42/2
f 88/43/4 26/44/4 25/34/4 87/33/4
f 88/43/9 83/41/9 23/42/9 26/44/9
f 23/42/3 22/40/3 25/34/3 26/44/3
f 22/40/3 21/37/3 24/35/3 25/34/3
f 27/45/1 32/46/1 31/47/1 28/48/1
f 28/48/1 31/47/1 30/49/1 29/50/1
f 33/51/3 35/52/3 41/53/3 34/54/3
f 66/55/2 65/56/2 33/51/2 34/54/2
f 70/57/7 35/52/7 33/51/7 65/56/7
f 37/58/1 36/59/1 38/60/1 40/61/1
f 69/62/2 66/55/2 34/54/2 44/63/2
f 39/64/1 42/65/1 40/61/1 38/60/1
f 67/66/4 68/67/4 43/68/4 41/53/4
f 70/57/4 67/66/4 41/53/4 35/52/4
f 68/67/8 69/62/8 44/63/8 43/68/8
f 34/54/3 41/53/3 43/68/3 44/63/3
f 81/69/4 49/70/4 48/71/4 80/72/4
f 80/72/7 48/71/7 45/73/7 79/74/7
f 78/75/2 79/74/2 45/73/2 46/76/2
f 77/77/2 78/75/2 46/76/2 47/78/2
f 82/79/4 50/80/4 49/70/4 81/69/4
f 82/79/9 77/77/9 47/78/9 50/80/9
f 47/78/3 46/76/3 49/70/3 50/80/3
f 46/76/3 45/73/3 48/71/3 49/70/3
f 51/81/1 56/82/1 55/83/1 52/84/1
f 52/84/1 55/83/1 54/85/1 53/86/1
f 57/87/1 59/88/1 60/89/1 58/90/1
f 89/91/2 63/92/2 64/93/2 90/94/2
f 63/92/3 61/95/3 62/96/3 64/93/3
f 91/97/4 57/87/4 58/90/4 92/98/4
f 89/91/5 91/99/5 61/95/5 63/92/5
f 90/100/6 92/98/6 58/90/6 60/89/6
f 42/65/10 39/64/10 69/101/10 68/102/10
f 37/58/4 40/61/4 67/103/4 70/104/4
f 40/61/4 42/65/4 68/102/4 67/103/4
f 39/64/2 38/60/2 66/105/2 69/101/2
f 37/58/7 70/104/7 65/106/7 36/59/7
f 38/60/2 36/59/2 65/106/2 66/105/2
f 18/29/10 15/28/10 75/107/10 74/108/10
f 13/22/4 16/25/4 73/109/4 76/110/4
f 16/25/4 18/29/4 74/108/4 73/109/4
f 15/28/2 14/24/2 72/111/2 75/107/2
f 13/22/7 76/110/7 71/112/7 12/23/7
f 14/24/2 12/23/2 71/112/2 72/111/2
f 56/82/9 51/81/9 77/113/9 82/114/9
f 56/82/4 82/114/4 81/115/4 55/83/4
f 51/81/2 52/84/2 78/116/2 77/113/2
f 52/84/2 53/86/2 79/117/2 78/116/2
f 54/85/7 80/118/7 79/117/7 53/86/7
f 55/83/4 81/115/4 80/118/4 54/85/4
f 32/46/9 27/45/9 83/119/9 88/120/9
f 32/46/4 88/120/4 87/121/4 31/47/4
f 27/45/2 28/48/2 84/122/2 83/119/2
f 28/48/2 29/50/2 85/123/2 84/122/2
f 30/49/7 86/124/7 85/123/7 29/50/7
f 31/47/4 87/121/4 86/124/4 30/49/4
f 64/93/6 62/96/6 92/125/6 90/94/6
f 59/88/5 57/87/5 91/97/5 89/126/5
f 61/95/4 91/99/4 92/125/4 62/96/4
f 59/88/2 89/126/2 90/100/2 60/89/2
f 8/7/6 6/10/6 96/127/6 94/8/6
f 3/2/5 1/1/5 95/11/5 93/128/5
f 5/9/4 95/13/4 96/127/4 6/10/4
f 3/2/2 93/128/2 94/14/2 4/3/2
