# Blender 4.2.4 LTS
# www.blender.org
o Cube.019
v 0.066522 -0.000142 -0.048886
v 0.066522 0.154472 -0.048886
v 0.066522 -0.000142 -0.058464
v 0.066522 0.154472 -0.058464
v 0.076100 -0.000142 -0.048886
v 0.076100 0.154472 -0.048886
v 0.076100 -0.000142 -0.058464
v 0.076100 0.154472 -0.058464
v 0.066522 0.146853 -0.048886
v 0.066522 0.146853 -0.058464
v 0.076100 0.146853 -0.058464
v 0.076100 0.146853 -0.048886
v 0.066522 0.178187 -0.048886
v 0.066522 0.178187 -0.058464
v 0.076100 0.178187 -0.048886
v 0.076100 0.178187 -0.058464
v 0.066522 0.146853 0.045051
v 0.066522 0.154472 0.045051
v 0.076100 0.154472 0.045051
v 0.076100 0.146853 0.045051
v 0.066522 -0.000142 0.057546
v 0.066522 0.154472 0.057546
v 0.066522 -0.000142 0.047968
v 0.066522 0.154472 0.047968
v 0.076100 -0.000142 0.057546
v 0.076100 0.154472 0.057546
v 0.076100 -0.000142 0.047968
v 0.076100 0.154472 0.047968
v 0.066522 0.146853 0.057546
v 0.066522 0.146853 0.047968
v 0.076100 0.146853 0.047968
v 0.076100 0.146853 0.057546
v 0.066522 0.178187 0.057546
v 0.066522 0.178187 0.047968
v 0.076100 0.178187 0.057546
v 0.076100 0.178187 0.047968
v 0.066522 0.187377 -0.048886
v 0.066522 0.187377 -0.058464
v 0.076100 0.187377 -0.058464
v 0.076100 0.187377 -0.048886
v 0.066522 0.187377 0.057546
v 0.066522 0.187377 0.047968
v 0.076100 0.187377 0.047968
v 0.076100 0.187377 0.057546
v 0.083300 0.178187 -0.058464
v 0.083299 0.178187 -0.048886
v 0.083299 0.178187 0.047968
v 0.083299 0.178187 0.057546
v 0.083300 0.187377 -0.058464
v 0.083299 0.187377 -0.048886
v 0.083299 0.187377 0.047968
v 0.083299 0.187377 0.057546
v 0.066522 0.178187 -0.065727
v 0.076101 0.178187 -0.065727
v 0.066522 0.187377 -0.065727
v 0.076101 0.187377 -0.065727
v 0.076100 0.178187 0.063212
v 0.066522 0.178187 0.063212
v 0.076100 0.187377 0.063212
v 0.066522 0.187377 0.063212
v -0.066522 -0.000142 -0.048886
v -0.066522 0.154472 -0.048886
v -0.066522 -0.000142 -0.058464
v -0.066522 0.154472 -0.058464
v -0.076100 -0.000142 -0.048886
v -0.076100 0.154472 -0.048886
v -0.076100 -0.000142 -0.058464
v -0.076100 0.154472 -0.058464
v -0.066522 0.146853 -0.048886
v -0.066522 0.146853 -0.058464
v -0.076100 0.146853 -0.058464
v -0.076100 0.146853 -0.048886
v -0.066522 0.178187 -0.048886
v -0.066522 0.178187 -0.058464
v -0.076100 0.178187 -0.048886
v -0.076100 0.178187 -0.058464
v -0.066522 0.146853 0.045051
v -0.066522 0.154472 0.045051
v -0.076100 0.154472 0.045051
v -0.076100 0.146853 0.045051
v -0.066522 -0.000142 0.057546
v -0.066522 0.154472 0.057546
v -0.066522 -0.000142 0.047967
v -0.066522 0.154472 0.047967
v -0.076100 -0.000142 0.057546
v -0.076100 0.154472 0.057546
v -0.076100 -0.000142 0.047967
v -0.076100 0.154472 0.047967
v -0.066522 0.146853 0.057546
v -0.066522 0.146853 0.047967
v -0.076100 0.146853 0.047967
v -0.076100 0.146853 0.057546
v -0.066522 0.178187 0.057546
v -0.066522 0.178187 0.047967
v -0.076100 0.178187 0.057546
v -0.076100 0.178187 0.047967
v -0.066522 0.187377 -0.048886
v -0.066522 0.187377 -0.058464
v -0.076100 0.187377 -0.058464
v -0.076100 0.187377 -0.048886
v -0.066522 0.187377 0.057546
v -0.066522 0.187377 0.047967
v -0.076100 0.187377 0.047967
v -0.076100 0.187377 0.057546
v -0.083299 0.178187 -0.058464
v -0.083299 0.178187 -0.048886
v -0.083300 0.178187 0.047967
v -0.083300 0.178187 0.057546
v -0.083299 0.187377 -0.058464
v -0.083299 0.187377 -0.048886
v -0.083300 0.187377 0.047967
v -0.083300 0.187377 0.057546
v -0.066522 0.178187 -0.065727
v -0.076100 0.178187 -0.065727
v -0.066522 0.187377 -0.065727
v -0.076100 0.187377 -0.065727
v -0.076101 0.178187 0.063212
v -0.066522 0.178187 0.063212
v -0.076101 0.187377 0.063212
v -0.066522 0.187377 0.063212
v -0.066522 0.094123 0.047967
v -0.066522 0.103781 0.047967
v -0.076100 0.094123 0.047967
v -0.076100 0.103781 0.047967
v -0.076100 0.094123 0.057546
v -0.076100 0.103781 0.057546
v -0.066522 0.103781 0.057546
v -0.066522 0.094123 0.057546
v -0.066522 0.063955 0.047967
v -0.066522 0.054297 0.047967
v -0.076100 0.063955 0.047967
v -0.076100 0.054297 0.047967
v -0.076100 0.063955 0.057546
v -0.076100 0.054297 0.057546
v -0.066522 0.054297 0.057546
v -0.066522 0.063955 0.057546
v -0.066522 0.094123 -0.058464
v -0.066522 0.103781 -0.058464
v -0.076100 0.094123 -0.058464
v -0.076100 0.103781 -0.058464
v -0.076100 0.094123 -0.048886
v -0.076100 0.103781 -0.048886
v -0.066522 0.103781 -0.048886
v -0.066522 0.094123 -0.048886
v -0.066522 0.063955 -0.058464
v -0.066522 0.054297 -0.058464
v -0.076100 0.063955 -0.058464
v -0.076100 0.054297 -0.058464
v -0.076100 0.063955 -0.048886
v -0.076100 0.054297 -0.048886
v -0.066522 0.054297 -0.048886
v -0.066522 0.063955 -0.048886
v 0.066522 0.103781 -0.058464
v 0.066522 0.094123 -0.058464
v 0.076100 0.103781 -0.058464
v 0.076100 0.094123 -0.058464
v 0.076100 0.103781 -0.048886
v 0.076100 0.094123 -0.048886
v 0.066522 0.094123 -0.048886
v 0.066522 0.103781 -0.048886
v 0.066522 0.054297 -0.058464
v 0.066522 0.063955 -0.058464
v 0.076100 0.054297 -0.058464
v 0.076100 0.063955 -0.058464
v 0.076100 0.054297 -0.048886
v 0.076100 0.063955 -0.048886
v 0.066522 0.063955 -0.048886
v 0.066522 0.054297 -0.048886
v 0.066522 0.103781 0.047968
v 0.066522 0.094123 0.047968
v 0.076100 0.103781 0.047968
v 0.076100 0.094123 0.047968
v 0.076100 0.103781 0.057546
v 0.076100 0.094123 0.057546
v 0.066522 0.094123 0.057546
v 0.066522 0.103781 0.057546
v 0.066522 0.054297 0.047968
v 0.066522 0.063955 0.047968
v 0.076100 0.054297 0.047968
v 0.076100 0.063955 0.047968
v 0.076100 0.054297 0.057546
v 0.076100 0.063955 0.057546
v 0.066522 0.063955 0.057546
v 0.066522 0.054297 0.057546
v 0.083300 0.187377 -0.059510
v 0.077083 0.187377 -0.065727
v 0.082467 0.187377 -0.062619
v 0.080191 0.187377 -0.064894
v 0.077083 0.178187 -0.065727
v 0.083300 0.178187 -0.059510
v 0.080191 0.178187 -0.064894
v 0.082467 0.178187 -0.062619
v 0.077083 0.178187 0.063212
v 0.082467 0.178187 0.060379
v 0.080191 0.178187 0.062453
v 0.077083 0.187377 0.063212
v 0.080191 0.187377 0.062453
v 0.082467 0.187377 0.060379
v -0.077083 0.187377 -0.065727
v -0.083299 0.187377 -0.059510
v -0.080191 0.187377 -0.064894
v -0.082467 0.187377 -0.062619
v -0.083299 0.178187 -0.059510
v -0.077083 0.178187 -0.065727
v -0.082467 0.178187 -0.062619
v -0.080191 0.178187 -0.064894
v -0.077083 0.178187 0.063212
v -0.080191 0.178187 0.062453
v -0.082467 0.178187 0.060379
v -0.077083 0.187377 0.063212
v -0.082467 0.187377 0.060379
v -0.080191 0.187377 0.062453
vn -0.0000 -0.0000 -1.0000
vn 1.0000 -0.0000 -0.0000
vn -0.0000 -1.0000 -0.0000
vn -0.0000 -0.0000 1.0000
vn -0.0000 1.0000 -0.0000
vn -1.0000 -0.0000 -0.0000
vn 0.1195 -0.0000 0.9928
vn 0.9898 -0.0000 0.1425
vn 0.1305 -0.0000 -0.9914
vn -0.9914 -0.0000 -0.1305
vn -0.1195 -0.0000 0.9928
vn -0.9898 -0.0000 0.1425
vn -0.1305 -0.0000 -0.9914
vn 0.9914 -0.0000 -0.1305
vn 0.8660 -0.0000 -0.5000
vn 0.7071 -0.0000 -0.7071
vn 0.2588 -0.0000 -0.9659
vn 0.4700 -0.0000 0.8826
vn 0.6737 -0.0000 0.7390
vn -0.5000 -0.0000 -0.8660
vn -0.8660 -0.0000 -0.5000
vn -0.6737 -0.0000 0.7390
vn -0.4700 -0.0000 0.8826
vn 0.9594 -0.0000 0.2820
vn -0.9594 -0.0000 0.2820
vt 0.098558 0.434608
vt 0.098449 0.445321
vt 0.084981 0.445185
vt 0.085089 0.434472
vt 0.280285 0.344145
vt 0.280176 0.354859
vt 0.266708 0.354722
vt 0.266816 0.344009
vt 0.861457 0.031436
vt 0.861457 0.015157
vt 0.877736 0.015157
vt 0.877736 0.031436
vt 0.948399 0.315810
vt 0.948399 0.301158
vt 0.984678 0.301158
vt 0.984678 0.315810
vt 0.894015 0.140375
vt 0.894015 0.191647
vt 0.877736 0.191647
vt 0.877736 0.140375
vt 0.910294 0.140375
vt 0.910294 0.191647
vt 0.910294 0.208063
vt 0.910294 0.281267
vt 0.894015 0.281267
vt 0.894015 0.208063
vt 0.861457 0.140375
vt 0.861457 0.191647
vt 0.845178 0.191647
vt 0.845178 0.140375
vt 0.134617 0.353384
vt 0.134726 0.342671
vt 0.666183 0.060126
vt 0.666183 0.038892
vt 0.682285 0.038892
vt 0.682285 0.060126
vt 0.405586 0.415533
vt 0.422849 0.415460
vt 0.423029 0.458203
vt 0.405766 0.458275
vt 0.130516 0.353343
vt 0.130624 0.342629
vt 0.967225 0.766728
vt 0.967225 0.784419
vt 0.793724 0.784419
vt 0.793724 0.766728
vt 0.788336 0.784419
vt 0.788336 0.766728
vt 0.117047 0.353206
vt 0.117156 0.342493
vt 0.804241 0.031436
vt 0.804241 0.015157
vt 0.820520 0.015158
vt 0.820520 0.031436
vt 0.948399 0.478629
vt 0.948399 0.463976
vt 0.984678 0.463976
vt 0.984678 0.478629
vt 0.836799 0.140375
vt 0.836799 0.191647
vt 0.820520 0.191647
vt 0.820520 0.140375
vt 0.787962 0.140375
vt 0.787962 0.191647
vt 0.771683 0.191647
vt 0.771683 0.140375
vt 0.787962 0.208063
vt 0.787962 0.281267
vt 0.771683 0.281267
vt 0.771683 0.208063
vt 0.804241 0.140375
vt 0.804241 0.191647
vt 0.430225 0.038892
vt 0.408990 0.038892
vt 0.408990 0.022931
vt 0.430225 0.022931
vt 0.058181 0.521944
vt 0.038998 0.521923
vt 0.039049 0.474428
vt 0.058233 0.474448
vt 0.019815 0.521903
vt 0.019866 0.474407
vt 0.285408 0.464278
vt 0.285516 0.453565
vt 0.298985 0.453701
vt 0.298876 0.464414
vt 0.644948 0.060126
vt 0.644948 0.038892
vt 0.430225 0.060126
vt 0.408990 0.060126
vt 0.085298 0.371716
vt 0.104730 0.371716
vt 0.104730 0.386321
vt 0.085298 0.386321
vt 0.370814 0.042829
vt 0.352544 0.051528
vt 0.352218 0.049124
vt 0.369857 0.040794
vt 0.330752 0.016596
vt 0.327141 0.034971
vt 0.076010 0.037097
vt 0.075763 0.017080
vt 0.343862 0.038555
vt 0.354627 0.022713
vt 0.060310 0.038239
vt 0.053296 0.019005
vt 0.644948 0.022931
vt 0.666183 0.022931
vt 0.301219 0.371716
vt 0.301219 0.386321
vt 0.320651 0.371716
vt 0.320651 0.386321
vt 0.045436 0.049937
vt 0.041934 0.070144
vt 0.019607 0.063813
vt 0.027238 0.037908
vt 0.028668 0.035782
vt 0.046138 0.048063
vt 0.320651 0.352285
vt 0.335386 0.352285
vt 0.335386 0.371716
vt 0.355146 0.071234
vt 0.377068 0.066736
vt 0.085298 0.352285
vt 0.073802 0.371716
vt 0.073802 0.352285
vt 0.043710 0.412772
vt 0.041369 0.411210
vt 0.054687 0.392437
vt 0.056958 0.393191
vt 0.396427 0.060126
vt 0.396427 0.038892
vt 0.252161 0.522155
vt 0.064023 0.521951
vt 0.252212 0.474659
vt 0.948399 0.459514
vt 0.285641 0.436503
vt 0.299110 0.436640
vt 0.299001 0.447353
vt 0.285533 0.447217
vt 0.280301 0.339680
vt 0.266833 0.339543
vt 0.266941 0.328830
vt 0.280410 0.328966
vt 0.984916 0.766728
vt 0.967225 0.520992
vt 0.984916 0.520992
vt 0.747025 0.031436
vt 0.730746 0.031436
vt 0.730746 0.015157
vt 0.747025 0.015157
vt 0.903632 0.463976
vt 0.939911 0.463976
vt 0.939911 0.478629
vt 0.903632 0.478629
vt 0.714467 0.140375
vt 0.730746 0.140375
vt 0.730746 0.191647
vt 0.714467 0.191647
vt 0.698188 0.140375
vt 0.698188 0.191647
vt 0.747025 0.140375
vt 0.763304 0.140375
vt 0.763304 0.191647
vt 0.747025 0.191647
vt 0.320651 0.082372
vt 0.335386 0.082372
vt 0.134742 0.338205
vt 0.134851 0.327492
vt 0.666183 0.355086
vt 0.682285 0.355086
vt 0.682285 0.376321
vt 0.666183 0.376321
vt 0.679911 0.414376
vt 0.680091 0.457118
vt 0.662827 0.457191
vt 0.662647 0.414448
vt 0.644948 0.355086
vt 0.130641 0.338164
vt 0.130749 0.327450
vt 0.793724 0.520992
vt 0.793724 0.503301
vt 0.967225 0.503301
vt 0.430225 0.355086
vt 0.788336 0.520992
vt 0.788336 0.503301
vt 0.117172 0.338027
vt 0.117281 0.327314
vt 0.949833 0.031397
vt 0.933555 0.031397
vt 0.933555 0.015119
vt 0.949833 0.015119
vt 0.903632 0.301158
vt 0.939911 0.301158
vt 0.939911 0.315810
vt 0.903632 0.315810
vt 0.917277 0.140331
vt 0.933555 0.140331
vt 0.933555 0.191601
vt 0.917277 0.191601
vt 0.966112 0.140331
vt 0.982390 0.140331
vt 0.982390 0.191601
vt 0.966112 0.191601
vt 0.949833 0.140331
vt 0.949834 0.191601
vt 0.408990 0.355086
vt 0.396427 0.355086
vt 0.430225 0.376321
vt 0.430225 0.392281
vt 0.408990 0.392281
vt 0.408990 0.376321
vt 0.712605 0.522655
vt 0.712657 0.475159
vt 0.731840 0.475180
vt 0.731789 0.522676
vt 0.751023 0.475201
vt 0.750972 0.522696
vt 0.098324 0.462383
vt 0.084856 0.462246
vt 0.084964 0.451533
vt 0.098433 0.451669
vt 0.644948 0.376321
vt 0.135958 0.084363
vt 0.135958 0.275495
vt 0.122198 0.275495
vt 0.122198 0.084363
vt 0.085298 0.062940
vt 0.085298 0.048335
vt 0.104730 0.048335
vt 0.104730 0.062940
vt 0.374488 0.393733
vt 0.373421 0.396035
vt 0.353557 0.386296
vt 0.354001 0.384042
vt 0.518677 0.474948
vt 0.518626 0.522444
vt 0.140149 0.084363
vt 0.140149 0.275495
vt 0.275097 0.084363
vt 0.275097 0.275495
vt 0.380233 0.366276
vt 0.356505 0.363155
vt 0.328801 0.423931
vt 0.070116 0.423931
vt 0.076329 0.399250
vt 0.323868 0.400296
vt 0.343836 0.398264
vt 0.355392 0.416027
vt 0.644948 0.392281
vt 0.666183 0.392281
vt 0.301219 0.048335
vt 0.301219 0.062940
vt 0.320651 0.048335
vt 0.320651 0.062940
vt 0.734978 0.544406
vt 0.734978 0.749232
vt 0.585869 0.749232
vt 0.585869 0.544406
vt 0.041878 0.377211
vt 0.021804 0.385960
vt 0.017300 0.360112
vt 0.039646 0.358146
vt 0.042115 0.379249
vt 0.022846 0.388278
vt 0.335386 0.062940
vt 0.073802 0.082372
vt 0.085298 0.082372
vt 0.770645 0.766728
vt 0.770645 0.520992
vt 0.073802 0.062940
vt 0.749723 0.544406
vt 0.749724 0.749232
vt 0.396427 0.376321
vt 0.706763 0.522648
vt 0.903632 0.320273
vt 0.949833 0.208016
vt 0.966112 0.208016
vt 0.966112 0.281217
vt 0.949834 0.281217
vt 0.982390 0.208016
vt 0.982390 0.281217
vt 0.917277 0.208016
vt 0.933555 0.208016
vt 0.933555 0.281217
vt 0.917277 0.281217
vt 0.949833 0.123916
vt 0.933555 0.123916
vt 0.730746 0.208063
vt 0.747025 0.208063
vt 0.747025 0.281267
vt 0.730746 0.281267
vt 0.917277 0.031397
vt 0.917277 0.123916
vt 0.966112 0.031397
vt 0.982390 0.031397
vt 0.982390 0.123916
vt 0.966112 0.123916
vt 0.763304 0.208063
vt 0.763304 0.281267
vt 0.698188 0.208063
vt 0.714467 0.208063
vt 0.714467 0.281267
vt 0.698188 0.281267
vt 0.747025 0.123960
vt 0.730746 0.123960
vt 0.877736 0.208063
vt 0.877736 0.281267
vt 0.861457 0.281267
vt 0.861457 0.208063
vt 0.714467 0.031436
vt 0.714467 0.123960
vt 0.698188 0.031436
vt 0.698188 0.123960
vt 0.763304 0.031436
vt 0.763304 0.123960
vt 0.845178 0.281267
vt 0.845178 0.208063
vt 0.877736 0.123960
vt 0.861457 0.123960
vt 0.820520 0.208063
vt 0.820520 0.281267
vt 0.804241 0.281267
vt 0.804241 0.208063
vt 0.894015 0.031436
vt 0.894015 0.123960
vt 0.910294 0.031436
vt 0.910294 0.123960
vt 0.845178 0.123960
vt 0.845178 0.031436
vt 0.836799 0.208063
vt 0.836799 0.281267
vt 0.820520 0.123960
vt 0.804241 0.123960
vt 0.836799 0.031436
vt 0.836799 0.123960
vt 0.787962 0.031436
vt 0.787962 0.123960
vt 0.771683 0.123960
vt 0.771683 0.031436
vt 0.828608 0.443668
vt 0.814063 0.443668
vt 0.814063 0.296581
vt 0.828608 0.296581
vt 0.784848 0.443668
vt 0.770180 0.443668
vt 0.770180 0.296581
vt 0.784848 0.296581
vt 0.107709 0.292535
vt 0.294792 0.294431
vt 0.294656 0.307899
vt 0.107572 0.306004
vt 0.849428 0.297079
vt 0.848840 0.443670
vt 0.838198 0.443628
vt 0.838785 0.297036
vt 0.799394 0.443668
vt 0.799394 0.296581
vt 0.870623 0.297164
vt 0.870036 0.443755
vt 0.859393 0.443712
vt 0.859981 0.297121
vt 0.050947 0.019783
vt 0.057531 0.038089
vt 0.052574 0.039337
vt 0.042768 0.023095
vt 0.048814 0.042971
vt 0.035025 0.028486
vt 0.350921 0.043748
vt 0.365826 0.033678
vt 0.348198 0.040210
vt 0.360687 0.027512
vt 0.044656 0.384859
vt 0.027190 0.396880
vt 0.049077 0.389442
vt 0.033482 0.404806
vt 0.362152 0.411040
vt 0.348736 0.396102
vt 0.351791 0.391923
vt 0.368436 0.404341
vt 0.396427 0.036714
vt 0.398110 0.029823
vt 0.402709 0.024778
vt 0.073802 0.373709
vt 0.079550 0.384632
vt 0.075342 0.380015
vt 0.073802 0.060947
vt 0.075342 0.054641
vt 0.079550 0.050025
vt 0.396427 0.378499
vt 0.402709 0.390435
vt 0.398110 0.385390
vt 0.682285 0.036714
vt 0.668503 0.022931
vt 0.675394 0.024778
vt 0.680439 0.029823
vt 0.682285 0.378499
vt 0.668503 0.392281
vt 0.675394 0.390435
vt 0.680439 0.385390
vt 0.732273 0.296485
vt 0.732273 0.444650
vt 0.717497 0.444650
vt 0.717497 0.296485
vt 0.702844 0.444650
vt 0.702844 0.296485
vt 0.761701 0.296485
vt 0.761701 0.444650
vt 0.746925 0.444650
vt 0.746925 0.296485
vt 0.322774 0.386321
vt 0.329080 0.384632
vt 0.335386 0.373709
vt 0.333697 0.380015
vt 0.322774 0.048335
vt 0.335386 0.060947
vt 0.329080 0.050025
vt 0.333697 0.054641
s 1
f 10/1/1 4/2/1 8/3/1 11/4/1
f 11/5/2 8/6/2 6/7/2 12/8/2
f 3/9/3 7/10/3 5/11/3 1/12/3
f 6/13/2 8/14/2 16/15/2 15/16/2
f 166/17/4 158/18/4 159/19/4 167/20/4
f 164/21/2 156/22/2 158/18/2 166/17/2
f 155/23/2 11/24/2 12/25/2 157/26/2
f 162/27/1 154/28/1 156/29/1 164/30/1
f 12/8/2 6/7/2 19/31/2 20/32/2
f 38/33/5 39/34/5 56/35/5 55/36/5
f 8/37/1 4/38/1 14/39/1 16/40/1
f 20/32/2 19/31/2 28/41/2 31/42/2
f 9/43/3 12/44/3 20/45/3 17/46/3
f 20/45/3 31/47/3 30/48/3 17/46/3
f 31/42/2 28/41/2 26/49/2 32/50/2
f 23/51/3 27/52/3 25/53/3 21/54/3
f 26/55/2 28/56/2 36/57/2 35/58/2
f 182/59/4 174/60/4 175/61/4 183/62/4
f 180/63/2 172/64/2 174/65/2 182/66/2
f 171/67/2 31/68/2 32/69/2 173/70/2
f 178/71/1 170/72/1 172/64/1 180/63/1
f 43/73/5 44/74/5 52/75/5 51/76/5
f 24/77/6 22/78/6 33/79/6 34/80/6
f 22/78/4 26/81/4 35/82/4 33/79/4
f 22/83/4 29/84/4 32/85/4 26/86/4
f 39/34/5 38/33/5 37/87/5 40/88/5
f 43/73/5 42/89/5 41/90/5 44/74/5
f 40/88/5 37/87/5 42/89/5 43/73/5
f 35/91/3 36/92/3 47/93/3 48/94/3
f 59/95/4 57/96/4 193/97/7 196/98/7
f 51/99/2 47/100/2 46/101/2 50/102/2
f 48/103/8 47/100/2 51/99/2 52/104/8
f 46/101/2 45/105/2 49/106/2 50/102/2
f 40/88/5 43/73/5 51/76/5 50/107/5
f 39/34/5 40/88/5 50/107/5 49/108/5
f 36/92/3 15/109/3 46/110/3 47/93/3
f 15/109/3 16/111/3 45/112/3 46/110/3
f 54/113/1 53/114/1 55/115/1 56/116/1
f 54/113/1 56/116/1 186/117/9 189/118/9
f 16/111/3 14/119/3 53/120/3 54/121/3
f 58/122/4 57/96/4 59/95/4 60/123/4
f 33/124/3 35/91/3 57/125/3 58/126/3
f 109/127/6 200/128/10 203/129/10 105/130/6
f 44/74/5 41/90/5 60/131/5 59/132/5
f 2/133/6 18/134/6 24/77/6 34/80/6 13/135/6
f 6/13/2 15/16/2 36/57/2 28/56/2 19/136/2
f 70/137/1 71/138/1 68/139/1 64/140/1
f 71/141/6 72/142/6 66/143/6 68/144/6
f 10/145/3 9/43/3 69/146/3 70/147/3
f 63/148/3 61/149/3 65/150/3 67/151/3
f 66/152/6 75/153/6 76/154/6 68/155/6
f 149/156/4 152/157/4 144/158/4 141/159/4
f 147/160/6 149/156/6 141/159/6 139/161/6
f 145/162/1 147/163/1 139/164/1 137/165/1
f 152/157/2 145/162/2 137/165/2 144/158/2
f 53/120/3 14/119/3 74/166/3 113/167/3
f 72/142/6 80/168/6 79/169/6 66/143/6
f 98/170/5 115/171/5 116/172/5 99/173/5
f 68/174/1 76/175/1 74/176/1 64/177/1
f 38/33/5 98/170/5 97/178/5 37/87/5
f 80/168/6 91/179/6 88/180/6 79/169/6
f 10/1/1 70/137/1 64/140/1 4/2/1
f 69/146/3 77/181/3 80/182/3 72/183/3
f 42/89/5 37/87/5 97/178/5 102/184/5
f 80/182/3 77/181/3 90/185/3 91/186/3
f 91/179/6 92/187/6 86/188/6 88/180/6
f 83/189/3 81/190/3 85/191/3 87/192/3
f 86/193/6 95/194/6 96/195/6 88/196/6
f 133/197/4 136/198/4 128/199/4 125/200/4
f 131/201/6 133/202/6 125/203/6 123/204/6
f 129/205/1 131/201/1 123/204/1 121/206/1
f 136/198/2 129/205/2 121/206/2 128/199/2
f 41/90/5 101/207/5 120/208/5 60/131/5
f 103/209/5 111/210/5 112/211/5 104/212/5
f 84/213/2 94/214/2 93/215/2 82/216/2
f 82/216/4 93/215/4 95/217/4 86/218/4
f 55/36/5 115/171/5 98/170/5 38/33/5
f 82/219/4 86/220/4 92/221/4 89/222/4
f 42/89/5 102/184/5 101/207/5 41/90/5
f 99/173/5 100/223/5 97/178/5 98/170/5
f 103/209/5 104/212/5 101/207/5 102/184/5
f 24/224/5 84/225/5 82/226/5 22/227/5
f 100/223/5 103/209/5 102/184/5 97/178/5
f 95/228/3 108/229/3 107/230/3 96/231/3
f 119/232/4 210/233/11 207/234/11 117/235/4
f 13/135/4 73/236/4 62/237/4 2/133/4
f 29/84/4 22/83/4 82/219/4 89/222/4
f 24/224/5 18/238/5 78/239/5 84/225/5
f 18/238/5 2/240/5 62/241/5 78/239/5
f 60/123/4 120/242/4 118/243/4 58/122/4
f 111/244/6 110/245/6 106/246/6 107/247/6
f 108/248/12 112/249/12 111/244/6 107/247/6
f 106/246/6 110/245/6 109/127/6 105/130/6
f 100/223/5 110/250/5 111/210/5 103/209/5
f 99/173/5 109/251/5 110/250/5 100/223/5
f 96/231/3 107/230/3 106/252/3 75/253/3
f 75/253/3 106/252/3 105/254/3 76/255/3
f 34/256/3 94/257/3 73/258/3 13/259/3
f 114/260/1 116/261/1 115/262/1 113/263/1
f 30/48/3 90/185/3 77/181/3 17/46/3
f 114/260/1 204/264/13 199/265/13 116/261/1
f 76/255/3 114/266/3 113/167/3 74/166/3
f 58/126/3 118/267/3 93/268/3 33/124/3
f 17/46/3 77/181/3 69/146/3 9/43/3
f 118/243/4 120/242/4 119/232/4 117/235/4
f 30/48/3 29/269/3 89/270/3 90/185/3
f 93/268/3 118/267/3 117/271/3 95/228/3
f 34/256/3 33/272/3 93/273/3 94/257/3
f 104/212/5 119/274/5 120/208/5 101/207/5
f 62/237/2 73/236/2 94/214/2 84/213/2 78/275/2
f 66/152/6 79/276/6 88/196/6 96/195/6 75/153/6
f 55/115/1 53/114/1 113/263/1 115/262/1
f 4/38/1 64/177/1 74/176/1 14/39/1
f 122/277/1 124/278/1 91/279/1 90/280/1
f 124/278/6 126/281/6 92/282/6 91/279/6
f 126/283/4 127/284/4 89/285/4 92/286/4
f 81/190/2 83/189/2 130/287/2 135/288/2
f 143/289/2 138/290/2 70/291/2 69/292/2
f 85/293/4 81/190/4 135/288/4 134/294/4
f 87/295/6 85/296/6 134/297/6 132/298/6
f 83/189/1 87/295/1 132/298/1 130/287/1
f 138/290/1 140/299/1 71/300/1 70/291/1
f 140/301/6 142/302/6 72/303/6 71/304/6
f 142/302/4 143/289/4 69/292/4 72/303/4
f 61/149/2 63/148/2 146/305/2 151/306/2
f 160/307/6 9/308/6 10/309/6 153/310/6
f 65/311/4 61/149/4 151/306/4 150/312/4
f 67/313/6 65/311/6 150/312/6 148/314/6
f 63/148/1 67/315/1 148/316/1 146/305/1
f 153/310/1 10/309/1 11/317/1 155/318/1
f 167/20/6 159/19/6 154/28/6 162/27/6
f 157/26/4 12/25/4 9/308/4 160/307/4
f 1/12/6 168/319/6 161/320/6 3/9/6
f 176/321/6 29/322/6 30/323/6 169/324/6
f 5/325/4 165/326/4 168/319/4 1/12/4
f 7/327/2 163/328/2 165/326/2 5/325/2
f 3/9/1 161/320/1 163/329/1 7/330/1
f 169/324/1 30/323/1 31/68/1 171/67/1
f 183/62/6 175/61/6 170/72/6 178/71/6
f 173/331/4 32/332/4 29/322/4 176/321/4
f 21/54/6 184/333/6 177/334/6 23/51/6
f 25/335/4 181/336/4 184/333/4 21/54/4
f 27/337/2 179/338/2 181/339/2 25/340/2
f 23/51/1 177/334/1 179/338/1 27/337/1
f 126/281/6 124/278/6 123/204/6 125/203/6
f 127/284/4 126/283/4 125/200/4 128/199/4
f 136/198/4 133/197/4 134/294/4 135/288/4
f 133/202/6 131/201/6 132/298/6 134/297/6
f 131/341/5 129/342/5 152/343/5 149/344/5
f 140/299/1 138/290/1 137/165/1 139/164/1
f 142/302/6 140/301/6 139/161/6 141/159/6
f 132/345/6 131/346/6 149/347/6 150/348/6
f 149/156/6 147/160/6 148/314/6 150/312/6
f 147/163/1 145/162/1 146/305/1 148/316/1
f 146/349/3 161/350/3 168/351/3 151/352/3
f 153/310/1 155/318/1 156/29/1 154/28/1
f 155/23/2 157/26/2 158/18/2 156/22/2
f 164/21/2 166/17/2 165/326/2 163/328/2
f 162/27/1 164/30/1 163/329/1 161/320/1
f 145/353/1 162/354/1 161/355/1 146/356/1
f 171/67/2 173/70/2 174/65/2 172/64/2
f 173/331/4 176/321/4 175/61/4 174/60/4
f 182/59/4 183/62/4 184/333/4 181/336/4
f 180/63/2 182/66/2 181/339/2 179/338/2
f 127/284/2 122/277/2 90/280/2 89/285/2
f 183/62/6 178/71/6 177/334/6 184/333/6
f 175/61/6 176/321/6 169/324/6 170/72/6
f 141/159/4 144/158/4 143/289/4 142/302/4
f 137/165/2 138/290/2 143/289/2 144/158/2
f 129/342/2 130/357/2 151/358/2 152/343/2
f 130/357/3 132/345/3 150/348/3 151/358/3
f 122/277/1 121/206/1 123/204/1 124/278/1
f 170/72/1 169/324/1 171/67/1 172/64/1
f 135/288/2 130/287/2 129/205/2 136/198/2
f 121/206/2 122/277/2 127/284/2 128/199/2
f 158/18/4 157/26/4 160/307/4 159/19/4
f 160/307/6 153/310/6 154/28/6 159/19/6
f 151/359/4 168/360/4 167/361/4 152/362/4
f 152/362/5 167/361/5 162/354/5 145/353/5
f 185/363/14 190/364/14 192/365/15 187/366/15
f 187/366/15 192/365/15 191/367/16 188/368/16
f 188/368/17 191/367/17 189/118/9 186/117/9
f 196/98/7 193/97/7 195/369/18 197/370/18
f 197/370/18 195/369/18 194/371/19 198/372/19
f 199/265/13 204/264/13 206/373/20 201/374/20
f 201/374/20 206/373/20 205/375/21 202/376/21
f 202/376/21 205/375/21 203/129/10 200/128/10
f 211/377/22 209/378/22 208/379/23 212/380/23
f 212/380/23 208/379/23 207/234/11 210/233/11
f 49/106/2 45/105/2 190/364/14 185/363/14
f 59/132/5 196/381/5 44/74/5
f 197/382/5 198/383/5 44/74/5 196/381/5
f 35/91/3 193/384/3 57/125/3
f 193/384/3 35/91/3 194/385/3 195/386/3
f 117/271/3 207/387/3 95/228/3
f 208/388/3 209/389/3 95/228/3 207/387/3
f 119/274/5 104/212/5 210/390/5
f 112/211/5 211/391/5 104/212/5
f 212/392/5 210/390/5 104/212/5 211/391/5
f 56/35/5 39/34/5 186/393/5
f 49/108/5 185/394/5 39/34/5
f 185/394/5 187/395/5 39/34/5
f 186/393/5 39/34/5 188/396/5
f 187/395/5 188/396/5 39/34/5
f 116/172/5 199/397/5 99/173/5
f 109/251/5 99/173/5 200/398/5
f 200/398/5 99/173/5 202/399/5
f 201/400/5 202/399/5 99/173/5
f 199/397/5 201/400/5 99/173/5
f 168/401/6 177/402/6 178/403/6 167/404/6
f 167/404/5 178/403/5 180/405/5 166/406/5
f 166/407/2 180/408/2 179/409/2 165/410/2
f 165/410/3 179/409/3 177/402/3 168/401/3
f 190/411/3 45/112/3 16/111/3 54/121/3
f 192/412/3 190/411/3 54/121/3 189/413/3
f 192/412/3 189/413/3 191/414/3
f 114/266/3 76/255/3 105/254/3 203/415/3
f 204/416/3 114/266/3 203/415/3 205/417/3
f 204/416/3 205/417/3 206/418/3
f 52/75/5 44/74/5 198/383/5
f 48/103/8 52/104/8 198/372/24 194/371/24
f 35/91/3 48/94/3 194/385/3
f 112/249/12 108/248/12 209/378/25 211/377/25
f 95/228/3 209/389/3 108/229/3
