# Blender 4.2.4 LTS
# www.blender.org
o Cube.015
v -0.297584 0.007695 0.000287
v -0.297584 0.007695 -0.004229
v -0.266180 0.155441 0.000287
v -0.212817 -0.010323 0.000287
v -0.212817 -0.010323 -0.004229
v -0.181413 0.137423 0.000287
v -0.181413 0.137423 -0.004229
v -0.266180 0.155441 -0.004229
v -0.291356 -0.105274 0.000662
v -0.291356 -0.105274 -0.000977
v -0.270139 -0.054756 0.000662
v -0.262372 -0.117447 0.000662
v -0.262372 -0.117447 -0.000977
v -0.241155 -0.066929 0.000662
v -0.241155 -0.066929 -0.000977
v -0.270139 -0.054756 -0.000977
v 0.245073 -0.100761 0.000680
v 0.245073 -0.100761 -0.001154
v 0.274596 -0.046996 0.000680
v 0.275919 -0.117699 0.000680
v 0.275919 -0.117699 -0.001154
v 0.305443 -0.063935 0.000680
v 0.305443 -0.063935 -0.001154
v 0.274596 -0.046996 -0.001154
v -0.191212 -0.111078 0.000055
v -0.191212 -0.111078 -0.002195
v -0.208123 -0.037764 0.000055
v -0.149149 -0.101375 0.000055
v -0.149149 -0.101375 -0.002195
v -0.166060 -0.028062 0.000055
v -0.166060 -0.028062 -0.002195
v -0.208123 -0.037764 -0.002195
v -0.004327 -0.063972 0.002231
v -0.053158 -0.121730 0.002231
v -0.040201 -0.040764 0.002231
v -0.054136 -0.104123 0.002225
v -0.044583 -0.126757 0.002231
v -0.053174 -0.060430 0.002231
v 0.023281 0.075814 0.007026
v -0.001011 0.116000 0.007026
v 0.023280 0.079033 0.007026
v -0.044013 0.032051 0.007026
v 0.101634 -0.029064 0.002228
v 0.082690 0.051706 0.002231
v 0.054466 0.019595 0.002231
v 0.101304 -0.022197 0.002231
v 0.102596 0.001554 0.002220
v 0.101323 0.035539 0.002231
v 0.266349 0.057322 0.000055
v 0.266349 0.057322 -0.002195
v 0.243110 0.128881 0.000055
v 0.307406 0.070655 0.000055
v 0.307406 0.070655 -0.002195
v 0.284166 0.142215 0.000055
v 0.284166 0.142215 -0.002195
v 0.243110 0.128881 -0.002195
v -0.073794 0.045735 0.000055
v -0.073794 0.045735 -0.002195
v -0.139039 0.008267 0.000055
v -0.095290 0.083169 0.000055
v -0.095290 0.083169 -0.002195
v -0.160536 0.045700 0.000055
v -0.160536 0.045700 -0.002195
v -0.139039 0.008267 -0.002195
v 0.159984 -0.043156 0.000873
v 0.159984 -0.043156 -0.003013
v 0.172488 0.086200 0.000873
v 0.234200 -0.050330 0.000873
v 0.234200 -0.050330 -0.003013
v 0.246704 0.079026 0.000873
v 0.246704 0.079026 -0.003013
v 0.172488 0.086200 -0.003013
v -0.053169 -0.129004 0.002055
v -0.053169 0.140255 0.002055
v -0.053169 -0.129004 -0.005996
v -0.053169 0.140255 -0.005996
v 0.101314 -0.129004 0.002055
v 0.101314 0.140255 0.002055
v 0.101314 -0.129004 -0.005996
v 0.101314 0.140255 -0.005996
v -0.053174 0.081932 0.007026
v -0.053812 0.047130 0.007026
vn -0.2079 -0.9781 -0.0000
vn -0.9781 0.2079 -0.0000
vn -0.0000 -0.0000 1.0000
vn 0.9781 -0.2079 -0.0000
vn 0.2079 0.9781 -0.0000
vn -0.0000 -0.0000 -1.0000
vn -0.3872 -0.9220 -0.0000
vn -0.9220 0.3872 -0.0000
vn 0.9220 -0.3872 -0.0000
vn 0.3872 0.9220 -0.0000
vn -0.4813 -0.8765 -0.0000
vn -0.8766 0.4813 -0.0000
vn 0.8765 -0.4813 -0.0000
vn 0.4813 0.8765 -0.0000
vn 0.2248 -0.9744 -0.0000
vn -0.9744 -0.2248 -0.0000
vn 0.9744 0.2248 -0.0000
vn -0.2248 0.9744 -0.0000
vn -0.0057 -0.0000 1.0000
vn 0.0062 -0.0000 1.0000
vn 0.0086 -0.0000 1.0000
vn 0.3089 -0.9511 -0.0000
vn -0.9511 -0.3089 -0.0000
vn 0.9511 0.3089 -0.0000
vn -0.3089 0.9511 -0.0000
vn 0.8672 0.4980 -0.0000
vn 0.4980 -0.8672 -0.0000
vn -0.4980 0.8672 -0.0000
vn -0.8672 -0.4980 -0.0000
vn -0.0962 -0.9954 -0.0000
vn -0.9954 0.0962 -0.0000
vn 0.9954 -0.0962 -0.0000
vn 0.0962 0.9954 -0.0000
vn -1.0000 -0.0000 -0.0000
vn 1.0000 -0.0000 -0.0000
vn -0.0000 -1.0000 -0.0000
vn -0.0000 1.0000 -0.0000
vt 0.009500 0.448406
vt 0.009500 0.328607
vt 0.015743 0.328607
vt 0.015743 0.448406
vt 0.015743 0.657213
vt 0.009500 0.657213
vt 0.943626 0.410831
vt 0.943626 0.782667
vt 0.730291 0.782667
vt 0.730291 0.410831
vt 0.009500 0.119800
vt 0.015743 0.119800
vt 0.009500 0.000000
vt 0.015743 0.000000
vt 0.943626 0.038996
vt 0.943626 0.410831
vt 0.730292 0.410831
vt 0.730292 0.038996
vt 0.021987 0.208807
vt 0.021987 0.328607
vt 0.015743 0.328607
vt 0.015743 0.208807
vt 0.015743 0.000000
vt 0.021987 0.000000
vt 0.730292 0.604772
vt 0.730292 0.976608
vt 0.516957 0.976608
vt 0.516957 0.604772
vt 0.021987 0.537413
vt 0.015743 0.537413
vt 0.021987 0.657213
vt 0.015743 0.657213
vt 0.081081 0.976608
vt 0.081081 0.604772
vt 0.294416 0.604772
vt 0.294416 0.976608
vt 0.680023 0.604772
vt 0.516958 0.859493
vt 0.526762 0.608522
vt 0.725763 0.608725
vt 0.726010 0.972520
vt 0.718128 0.976608
vt 0.725504 0.608479
vt 0.728974 0.970913
vt 0.730292 0.853367
vt 0.516957 0.664396
vt 0.517778 0.604572
vt 0.721109 0.611187
vt 0.521987 0.973271
vt 0.521590 0.972724
vt 0.521426 0.695537
vt 0.647020 0.608598
vt 0.521061 0.972393
vt 0.725251 0.973275
vt 0.009500 0.682284
vt 0.009500 1.000000
vt 0.000000 1.000000
vt 0.000000 0.682284
vt 0.405686 0.604772
vt 0.405686 0.038996
vt 0.000000 0.500000
vt 0.000000 0.182284
vt 0.009500 0.182284
vt 0.009500 0.500000
vt 0.405686 0.038996
vt 0.405686 0.604772
vt 0.081081 0.604772
vt 0.081081 0.038996
vt 0.000000 0.000000
vt 0.009500 0.000000
s 0
f 2/1/1 5/2/1 4/3/1 1/4/1
f 1/4/2 3/5/2 8/6/2 2/1/2
f 4/7/3 6/8/3 3/9/3 1/10/3
f 5/2/4 7/11/4 6/12/4 4/3/4
f 7/11/5 8/13/5 3/14/5 6/12/5
f 2/15/6 8/16/6 7/17/6 5/18/6
f 10/19/7 13/20/7 12/21/7 9/22/7
f 9/22/8 11/23/8 16/24/8 10/19/8
f 12/25/3 14/26/3 11/27/3 9/28/3
f 13/20/9 15/29/9 14/30/9 12/21/9
f 15/29/10 16/31/10 11/32/10 14/30/10
f 10/33/6 16/34/6 15/35/6 13/36/6
f 18/19/11 21/20/11 20/21/11 17/22/11
f 17/22/12 19/23/12 24/24/12 18/19/12
f 20/25/3 22/26/3 19/27/3 17/28/3
f 21/20/13 23/29/13 22/30/13 20/21/13
f 23/29/14 24/31/14 19/32/14 22/30/14
f 18/33/6 24/34/6 23/35/6 21/36/6
f 26/19/15 29/20/15 28/21/15 25/22/15
f 25/22/16 27/23/16 32/24/16 26/19/16
f 28/25/3 30/26/3 27/27/3 25/28/3
f 29/20/17 31/29/17 30/30/17 28/21/17
f 31/29/18 32/31/18 27/32/18 30/30/18
f 26/33/6 32/34/6 31/35/6 29/36/6
f 34/37/19 38/38/19 36/39/19
f 37/40/3 38/38/3 34/37/3
f 37/40/3 33/41/3 38/38/3
f 41/42/3 42/43/3 39/44/3
f 48/45/20 46/46/20 43/47/20
f 47/48/21 48/45/21 43/47/21
f 33/41/3 35/49/3 38/38/3
f 42/43/3 40/50/3 81/51/3 82/52/3
f 42/43/3 41/42/3 40/50/3
f 46/46/3 48/45/3 45/53/3
f 48/45/3 44/54/3 45/53/3
f 50/19/22 53/20/22 52/21/22 49/22/22
f 49/22/23 51/23/23 56/24/23 50/19/23
f 52/25/3 54/26/3 51/27/3 49/28/3
f 53/20/24 55/29/24 54/30/24 52/21/24
f 55/29/25 56/31/25 51/32/25 54/30/25
f 50/33/6 56/34/6 55/35/6 53/36/6
f 58/19/26 61/20/26 60/21/26 57/22/26
f 57/22/27 59/23/27 64/24/27 58/19/27
f 60/25/3 62/26/3 59/27/3 57/28/3
f 61/20/28 63/29/28 62/30/28 60/21/28
f 63/29/29 64/31/29 59/32/29 62/30/29
f 58/33/6 64/34/6 63/35/6 61/36/6
f 66/19/30 69/20/30 68/21/30 65/22/30
f 65/22/31 67/23/31 72/24/31 66/19/31
f 68/25/3 70/26/3 67/27/3 65/28/3
f 69/20/32 71/29/32 70/30/32 68/21/32
f 71/29/33 72/31/33 67/32/33 70/30/33
f 66/33/6 72/34/6 71/35/6 69/36/6
f 73/55/34 74/56/34 76/57/34 75/58/34
f 75/59/6 76/60/6 80/18/6 79/25/6
f 79/61/35 80/62/35 78/63/35 77/64/35
f 77/65/3 78/66/3 74/67/3 73/68/3
f 75/58/36 79/61/36 77/64/36 73/55/36
f 80/62/37 76/69/37 74/70/37 78/63/37
